<svg width="661" height="663" viewBox="0 0 661 663" fill="none" xmlns="http://www.w3.org/2000/svg">
<rect width="660.585" height="663" fill="#333333"/>
<rect x="11.7427" y="571.076" width="79.7304" height="79.7304" fill="#B58863"/>
<path d="M22.4921 643.71V639.421C22.4921 639.113 22.4416 638.849 22.3408 638.629C22.2399 638.404 22.0827 638.229 21.8692 638.104C21.6615 637.98 21.3916 637.918 21.0594 637.918C20.7746 637.918 20.5285 637.968 20.3208 638.069C20.1132 638.164 19.953 638.303 19.8403 638.487C19.7276 638.665 19.6712 638.876 19.6712 639.119H17.1085C17.1085 638.71 17.2034 638.321 17.3932 637.953C17.5831 637.585 17.8589 637.262 18.2208 636.983C18.5827 636.698 19.0127 636.476 19.5111 636.316C20.0153 636.156 20.5789 636.076 21.2018 636.076C21.9492 636.076 22.6137 636.2 23.195 636.449C23.7764 636.698 24.2332 637.072 24.5654 637.571C24.9035 638.069 25.0726 638.692 25.0726 639.439V643.559C25.0726 644.087 25.1052 644.52 25.1705 644.858C25.2357 645.191 25.3307 645.481 25.4552 645.73V645.882H22.8658C22.7412 645.621 22.6463 645.294 22.581 644.903C22.5217 644.505 22.4921 644.108 22.4921 643.71ZM22.8302 640.018L22.848 641.468H21.4153C21.0772 641.468 20.7835 641.507 20.5344 641.584C20.2852 641.661 20.0806 641.771 19.9204 641.913C19.7602 642.049 19.6416 642.21 19.5644 642.393C19.4933 642.577 19.4577 642.779 19.4577 642.999C19.4577 643.218 19.5081 643.417 19.6089 643.595C19.7098 643.767 19.8551 643.903 20.045 644.004C20.2348 644.099 20.4573 644.146 20.7124 644.146C21.098 644.146 21.4331 644.069 21.7179 643.915C22.0026 643.761 22.2221 643.571 22.3764 643.346C22.5365 643.12 22.6196 642.907 22.6255 642.705L23.3018 643.791C23.2069 644.034 23.0764 644.286 22.9103 644.547C22.7501 644.808 22.5454 645.054 22.2963 645.286C22.0471 645.511 21.7475 645.698 21.3975 645.846C21.0475 645.988 20.6323 646.06 20.1517 646.06C19.5407 646.06 18.986 645.938 18.4877 645.695C17.9954 645.446 17.6038 645.105 17.3131 644.672C17.0284 644.233 16.886 643.734 16.886 643.177C16.886 642.672 16.9809 642.224 17.1708 641.833C17.3606 641.441 17.6394 641.112 18.0072 640.845C18.381 640.572 18.8466 640.368 19.4043 640.231C19.9619 640.089 20.6085 640.018 21.3441 640.018H22.8302Z" fill="#F0D9B5"/>
<rect x="11.7427" y="411.615" width="79.7304" height="79.7304" fill="#B58863"/>
<rect x="91.4731" y="491.346" width="79.7304" height="79.7304" fill="#B58863"/>
<rect x="250.934" y="491.346" width="79.7304" height="79.7304" fill="#B58863"/>
<rect x="410.395" y="491.346" width="79.7304" height="79.7304" fill="#B58863"/>
<rect x="569.855" y="491.346" width="79.7304" height="79.7304" fill="#B58863"/>
<path d="M644.702 506.344V508.346H635.839V506.637L640.03 502.143C640.451 501.675 640.783 501.263 641.027 500.907C641.27 500.545 641.445 500.221 641.552 499.937C641.664 499.646 641.721 499.37 641.721 499.109C641.721 498.718 641.655 498.382 641.525 498.104C641.394 497.819 641.202 497.599 640.947 497.445C640.697 497.291 640.389 497.214 640.021 497.214C639.63 497.214 639.291 497.309 639.007 497.498C638.728 497.688 638.514 497.952 638.366 498.29C638.224 498.629 638.152 499.011 638.152 499.438H635.581C635.581 498.667 635.765 497.961 636.132 497.32C636.5 496.674 637.019 496.161 637.69 495.781C638.36 495.395 639.155 495.203 640.075 495.203C640.982 495.203 641.747 495.351 642.37 495.648C642.999 495.938 643.474 496.359 643.794 496.911C644.12 497.457 644.283 498.109 644.283 498.869C644.283 499.296 644.215 499.714 644.079 500.124C643.942 500.527 643.747 500.93 643.492 501.334C643.242 501.731 642.94 502.135 642.584 502.544C642.228 502.953 641.833 503.377 641.4 503.816L639.149 506.344H644.702Z" fill="#F0D9B5"/>
<rect x="171.203" y="411.615" width="79.7304" height="79.7304" fill="#B58863"/>
<rect x="330.664" y="411.615" width="79.7304" height="79.7304" fill="#B58863"/>
<rect x="490.125" y="411.615" width="79.7304" height="79.7304" fill="#B58863"/>
<rect x="11.7427" y="252.154" width="79.7304" height="79.7304" fill="#B58863"/>
<rect x="91.4731" y="331.885" width="79.7304" height="79.7304" fill="#B58863"/>
<rect x="250.934" y="331.885" width="79.7304" height="79.7304" fill="#B58863"/>
<rect x="410.395" y="331.885" width="79.7304" height="79.7304" fill="#B58863"/>
<rect x="569.855" y="331.885" width="79.7304" height="79.7304" fill="#B58863"/>
<path d="M644.915 344.044V346.055H635.581L635.456 344.498L640.858 335.929H642.895L640.688 339.622L638.001 344.044H644.915ZM643.447 335.929V348.885H640.884V335.929H643.447Z" fill="#F0D9B5"/>
<rect x="171.203" y="252.154" width="79.7304" height="79.7304" fill="#B58863"/>
<rect x="330.664" y="252.154" width="79.7304" height="79.7304" fill="#B58863"/>
<rect x="490.125" y="252.154" width="79.7304" height="79.7304" fill="#B58863"/>
<rect x="11.7427" y="92.6936" width="79.7304" height="79.7304" fill="#B58863"/>
<rect x="91.4731" y="12.9632" width="79.7304" height="79.7304" fill="#B58863"/>
<rect x="250.934" y="12.9632" width="79.7304" height="79.7304" fill="#B58863"/>
<rect x="410.395" y="12.9632" width="79.7304" height="79.7304" fill="#B58863"/>
<rect x="569.855" y="12.9632" width="79.7304" height="79.7304" fill="#B58863"/>
<path d="M644.568 26.4127C644.568 27.2254 644.378 27.9106 643.999 28.4683C643.619 29.02 643.097 29.4382 642.433 29.7229C641.774 30.0018 641.027 30.1412 640.19 30.1412C639.354 30.1412 638.603 30.0018 637.939 29.7229C637.274 29.4382 636.749 29.02 636.364 28.4683C635.978 27.9106 635.785 27.2254 635.785 26.4127C635.785 25.8669 635.895 25.3745 636.115 24.9356C636.334 24.4906 636.64 24.111 637.031 23.7965C637.429 23.4762 637.894 23.233 638.428 23.0669C638.962 22.8948 639.544 22.8088 640.172 22.8088C641.015 22.8088 641.768 22.9571 642.433 23.2537C643.097 23.5504 643.619 23.9686 643.999 24.5084C644.378 25.0483 644.568 25.683 644.568 26.4127ZM641.988 26.2436C641.988 25.8462 641.911 25.5051 641.756 25.2203C641.608 24.9296 641.397 24.7072 641.125 24.5529C640.852 24.3987 640.534 24.3216 640.172 24.3216C639.811 24.3216 639.493 24.3987 639.22 24.5529C638.947 24.7072 638.734 24.9296 638.58 25.2203C638.431 25.5051 638.357 25.8462 638.357 26.2436C638.357 26.6352 638.431 26.9733 638.58 27.2581C638.734 27.5428 638.947 27.7623 639.22 27.9165C639.499 28.0649 639.822 28.139 640.19 28.139C640.558 28.139 640.875 28.0649 641.142 27.9165C641.415 27.7623 641.623 27.5428 641.765 27.2581C641.914 26.9733 641.988 26.6352 641.988 26.2436ZM644.292 20.4418C644.292 21.1003 644.117 21.6846 643.767 22.1948C643.417 22.6991 642.931 23.0936 642.308 23.3783C641.691 23.6631 640.985 23.8054 640.19 23.8054C639.389 23.8054 638.677 23.6631 638.055 23.3783C637.432 23.0936 636.945 22.6991 636.595 22.1948C636.245 21.6846 636.07 21.1003 636.07 20.4418C636.07 19.6588 636.245 19.0003 636.595 18.4664C636.951 17.9265 637.438 17.5172 638.055 17.2384C638.677 16.9595 639.383 16.8201 640.172 16.8201C640.973 16.8201 641.682 16.9595 642.299 17.2384C642.922 17.5172 643.408 17.9265 643.758 18.4664C644.114 19.0003 644.292 19.6588 644.292 20.4418ZM641.73 20.5575C641.73 20.2075 641.667 19.9049 641.543 19.6499C641.418 19.3888 641.24 19.1871 641.009 19.0448C640.783 18.9024 640.505 18.8312 640.172 18.8312C639.852 18.8312 639.576 18.8994 639.345 19.0359C639.119 19.1723 638.944 19.371 638.82 19.6321C638.701 19.8871 638.642 20.1956 638.642 20.5575C638.642 20.9075 638.701 21.216 638.82 21.4829C638.944 21.744 639.122 21.9486 639.354 22.0969C639.585 22.2452 639.864 22.3194 640.19 22.3194C640.516 22.3194 640.792 22.2452 641.018 22.0969C641.249 21.9486 641.424 21.744 641.543 21.4829C641.667 21.216 641.73 20.9075 641.73 20.5575Z" fill="#F0D9B5"/>
<rect x="91.4731" y="172.424" width="79.7304" height="79.7304" fill="#B58863"/>
<rect x="250.934" y="172.424" width="79.7304" height="79.7304" fill="#B58863"/>
<rect x="410.395" y="172.424" width="79.7304" height="79.7304" fill="#B58863"/>
<rect x="569.855" y="172.424" width="79.7304" height="79.7304" fill="#B58863"/>
<path d="M642.45 176.334H642.824V178.381H642.673C641.997 178.381 641.394 178.482 640.866 178.684C640.338 178.885 639.891 179.173 639.523 179.547C639.161 179.914 638.882 180.359 638.686 180.881C638.497 181.404 638.402 181.988 638.402 182.634V184.788C638.402 185.251 638.446 185.66 638.535 186.016C638.63 186.366 638.763 186.66 638.935 186.897C639.113 187.128 639.321 187.303 639.558 187.422C639.796 187.535 640.063 187.591 640.359 187.591C640.638 187.591 640.89 187.532 641.116 187.413C641.347 187.294 641.543 187.128 641.703 186.915C641.869 186.695 641.994 186.44 642.077 186.149C642.166 185.853 642.21 185.529 642.21 185.179C642.21 184.829 642.166 184.506 642.077 184.209C641.994 183.913 641.869 183.658 641.703 183.444C641.537 183.225 641.335 183.056 641.098 182.937C640.861 182.818 640.594 182.759 640.297 182.759C639.894 182.759 639.538 182.854 639.229 183.044C638.927 183.228 638.689 183.465 638.517 183.756C638.345 184.046 638.253 184.352 638.241 184.672L637.467 184.174C637.485 183.717 637.58 183.284 637.752 182.875C637.93 182.465 638.173 182.104 638.482 181.789C638.796 181.469 639.173 181.22 639.612 181.042C640.051 180.858 640.546 180.766 641.098 180.766C641.703 180.766 642.234 180.881 642.691 181.113C643.153 181.344 643.539 181.662 643.847 182.065C644.156 182.468 644.387 182.934 644.542 183.462C644.696 183.99 644.773 184.554 644.773 185.153C644.773 185.782 644.669 186.366 644.461 186.906C644.26 187.446 643.966 187.917 643.581 188.321C643.201 188.724 642.744 189.038 642.21 189.264C641.676 189.489 641.077 189.602 640.413 189.602C639.724 189.602 639.099 189.477 638.535 189.228C637.977 188.973 637.497 188.617 637.094 188.16C636.69 187.704 636.379 187.161 636.159 186.532C635.946 185.903 635.839 185.215 635.839 184.468V183.471C635.839 182.427 635.99 181.472 636.293 180.606C636.601 179.734 637.043 178.98 637.619 178.345C638.194 177.705 638.888 177.209 639.701 176.859C640.513 176.509 641.43 176.334 642.45 176.334Z" fill="#F0D9B5"/>
<rect x="171.203" y="92.6936" width="79.7304" height="79.7304" fill="#B58863"/>
<rect x="330.664" y="92.6936" width="79.7304" height="79.7304" fill="#B58863"/>
<rect x="490.125" y="92.6936" width="79.7304" height="79.7304" fill="#B58863"/>
<rect x="171.203" y="571.076" width="79.7304" height="79.7304" fill="#B58863"/>
<path d="M180.734 644.058C181.048 644.058 181.327 643.998 181.57 643.88C181.813 643.755 182.003 643.583 182.14 643.363C182.282 643.138 182.356 642.874 182.362 642.571H184.774C184.768 643.248 184.587 643.85 184.231 644.378C183.875 644.9 183.397 645.312 182.798 645.615C182.199 645.911 181.529 646.06 180.787 646.06C180.04 646.06 179.387 645.935 178.829 645.686C178.278 645.437 177.818 645.093 177.45 644.654C177.082 644.209 176.807 643.693 176.623 643.105C176.439 642.512 176.347 641.877 176.347 641.201V640.943C176.347 640.261 176.439 639.626 176.623 639.039C176.807 638.446 177.082 637.929 177.45 637.49C177.818 637.046 178.278 636.698 178.829 636.449C179.381 636.2 180.028 636.076 180.769 636.076C181.558 636.076 182.249 636.227 182.843 636.529C183.442 636.832 183.911 637.265 184.249 637.829C184.593 638.386 184.768 639.048 184.774 639.813H182.362C182.356 639.493 182.288 639.202 182.158 638.941C182.033 638.68 181.849 638.472 181.606 638.318C181.369 638.158 181.075 638.078 180.725 638.078C180.351 638.078 180.046 638.158 179.808 638.318C179.571 638.472 179.387 638.686 179.257 638.959C179.126 639.226 179.034 639.531 178.981 639.875C178.933 640.213 178.91 640.569 178.91 640.943V641.201C178.91 641.575 178.933 641.934 178.981 642.278C179.028 642.622 179.117 642.927 179.248 643.194C179.384 643.461 179.571 643.672 179.808 643.826C180.046 643.98 180.354 644.058 180.734 644.058Z" fill="#F0D9B5"/>
<rect x="330.664" y="571.076" width="79.7304" height="79.7304" fill="#B58863"/>
<path d="M340.648 646.06C339.901 646.06 339.23 645.941 338.637 645.704C338.044 645.461 337.54 645.125 337.124 644.698C336.715 644.271 336.401 643.776 336.181 643.212C335.962 642.643 335.852 642.038 335.852 641.397V641.041C335.852 640.311 335.956 639.644 336.163 639.039C336.371 638.434 336.668 637.909 337.053 637.464C337.445 637.019 337.919 636.678 338.477 636.44C339.035 636.197 339.664 636.076 340.364 636.076C341.046 636.076 341.651 636.188 342.179 636.414C342.707 636.639 343.149 636.959 343.505 637.375C343.867 637.79 344.139 638.288 344.323 638.87C344.507 639.445 344.599 640.086 344.599 640.792V641.86H336.947V640.151H342.081V639.955C342.081 639.599 342.016 639.282 341.885 639.003C341.761 638.718 341.571 638.493 341.316 638.327C341.061 638.161 340.734 638.078 340.337 638.078C339.999 638.078 339.708 638.152 339.465 638.3C339.222 638.448 339.023 638.656 338.869 638.923C338.72 639.19 338.608 639.504 338.53 639.866C338.459 640.222 338.424 640.614 338.424 641.041V641.397C338.424 641.782 338.477 642.138 338.584 642.465C338.697 642.791 338.854 643.073 339.055 643.31C339.263 643.547 339.512 643.731 339.803 643.862C340.1 643.992 340.435 644.058 340.808 644.058C341.271 644.058 341.701 643.969 342.099 643.791C342.502 643.607 342.849 643.331 343.14 642.963L344.386 644.316C344.184 644.606 343.908 644.885 343.558 645.152C343.214 645.419 342.799 645.638 342.312 645.811C341.826 645.977 341.271 646.06 340.648 646.06Z" fill="#F0D9B5"/>
<rect x="490.125" y="571.076" width="79.7304" height="79.7304" fill="#B58863"/>
<path d="M501.773 636.254H504.096V645.561C504.096 646.439 503.9 647.184 503.508 647.795C503.123 648.412 502.583 648.878 501.889 649.192C501.195 649.512 500.388 649.672 499.469 649.672C499.065 649.672 498.638 649.619 498.187 649.512C497.742 649.405 497.315 649.239 496.906 649.014C496.502 648.789 496.164 648.504 495.891 648.16L497.021 646.647C497.318 646.991 497.662 647.258 498.054 647.448C498.445 647.644 498.878 647.741 499.353 647.741C499.816 647.741 500.207 647.655 500.527 647.483C500.848 647.317 501.094 647.071 501.266 646.745C501.438 646.425 501.524 646.036 501.524 645.579V638.478L501.773 636.254ZM495.295 641.183V640.996C495.295 640.261 495.384 639.593 495.562 638.994C495.746 638.389 496.004 637.87 496.336 637.437C496.674 637.004 497.084 636.669 497.564 636.432C498.045 636.194 498.588 636.076 499.193 636.076C499.833 636.076 500.37 636.194 500.803 636.432C501.236 636.669 501.592 637.007 501.871 637.446C502.15 637.879 502.366 638.392 502.521 638.985C502.681 639.573 502.805 640.216 502.894 640.916V641.326C502.805 641.996 502.672 642.619 502.494 643.194C502.316 643.77 502.082 644.274 501.791 644.707C501.5 645.134 501.138 645.466 500.705 645.704C500.278 645.941 499.768 646.06 499.175 646.06C498.582 646.06 498.045 645.938 497.564 645.695C497.09 645.452 496.683 645.11 496.345 644.672C496.007 644.233 495.746 643.716 495.562 643.123C495.384 642.53 495.295 641.883 495.295 641.183ZM497.858 640.996V641.183C497.858 641.581 497.896 641.952 497.974 642.296C498.051 642.64 498.169 642.945 498.33 643.212C498.496 643.473 498.7 643.678 498.944 643.826C499.193 643.969 499.486 644.04 499.824 644.04C500.293 644.04 500.676 643.942 500.972 643.746C501.269 643.544 501.491 643.269 501.64 642.919C501.788 642.568 501.874 642.165 501.898 641.708V640.543C501.886 640.169 501.836 639.834 501.747 639.537C501.658 639.235 501.533 638.976 501.373 638.763C501.213 638.549 501.005 638.383 500.75 638.265C500.495 638.146 500.192 638.087 499.842 638.087C499.504 638.087 499.21 638.164 498.961 638.318C498.718 638.466 498.513 638.671 498.347 638.932C498.187 639.193 498.066 639.501 497.982 639.857C497.899 640.207 497.858 640.587 497.858 640.996Z" fill="#F0D9B5"/>
<rect x="91.4731" y="571.076" width="79.7304" height="79.7304" fill="#F0D9B5"/>
<path d="M97.0257 632.214H99.5884V643.675L99.3304 645.882H97.0257V632.214ZM105.684 640.97V641.157C105.684 641.874 105.607 642.533 105.453 643.132C105.304 643.731 105.073 644.25 104.758 644.689C104.444 645.122 104.053 645.461 103.584 645.704C103.121 645.941 102.575 646.06 101.947 646.06C101.359 646.06 100.849 645.941 100.416 645.704C99.9889 645.466 99.63 645.131 99.3393 644.698C99.0486 644.265 98.8143 643.758 98.6363 643.177C98.4583 642.595 98.3249 641.96 98.2359 641.272V640.863C98.3249 640.175 98.4583 639.54 98.6363 638.959C98.8143 638.377 99.0486 637.87 99.3393 637.437C99.63 637.004 99.9889 636.669 100.416 636.432C100.843 636.194 101.347 636.076 101.929 636.076C102.564 636.076 103.115 636.197 103.584 636.44C104.058 636.678 104.45 637.016 104.758 637.455C105.073 637.888 105.304 638.404 105.453 639.003C105.607 639.596 105.684 640.252 105.684 640.97ZM103.121 641.157V640.97C103.121 640.578 103.091 640.21 103.032 639.866C102.979 639.516 102.884 639.211 102.747 638.95C102.611 638.683 102.424 638.472 102.187 638.318C101.955 638.164 101.656 638.087 101.288 638.087C100.938 638.087 100.641 638.146 100.398 638.265C100.155 638.383 99.9533 638.549 99.7931 638.763C99.6389 638.976 99.5232 639.232 99.4461 639.528C99.369 639.819 99.3215 640.139 99.3037 640.489V641.655C99.3215 642.124 99.3986 642.539 99.5351 642.901C99.6774 643.257 99.891 643.538 100.176 643.746C100.466 643.948 100.843 644.049 101.306 644.049C101.668 644.049 101.967 643.977 102.205 643.835C102.442 643.693 102.626 643.491 102.756 643.23C102.893 642.969 102.988 642.663 103.041 642.313C103.094 641.957 103.121 641.572 103.121 641.157Z" fill="#B58863"/>
<rect x="11.7427" y="491.346" width="79.7304" height="79.7304" fill="#F0D9B5"/>
<rect x="171.203" y="491.346" width="79.7304" height="79.7304" fill="#F0D9B5"/>
<rect x="330.664" y="491.346" width="79.7304" height="79.7304" fill="#F0D9B5"/>
<rect x="490.125" y="491.346" width="79.7304" height="79.7304" fill="#F0D9B5"/>
<rect x="11.7427" y="331.885" width="79.7304" height="79.7304" fill="#F0D9B5"/>
<rect x="91.4731" y="411.615" width="79.7304" height="79.7304" fill="#F0D9B5"/>
<rect x="250.934" y="411.615" width="79.7304" height="79.7304" fill="#F0D9B5"/>
<rect x="410.395" y="411.615" width="79.7304" height="79.7304" fill="#F0D9B5"/>
<rect x="569.855" y="411.615" width="79.7304" height="79.7304" fill="#F0D9B5"/>
<path d="M638.464 421.025H639.834C640.273 421.025 640.635 420.951 640.92 420.802C641.205 420.648 641.415 420.435 641.552 420.162C641.694 419.883 641.765 419.56 641.765 419.192C641.765 418.86 641.7 418.566 641.569 418.311C641.445 418.05 641.252 417.848 640.991 417.706C640.73 417.557 640.401 417.483 640.003 417.483C639.689 417.483 639.398 417.546 639.131 417.67C638.864 417.795 638.651 417.97 638.491 418.195C638.33 418.421 638.25 418.693 638.25 419.014H635.679C635.679 418.302 635.868 417.682 636.248 417.154C636.634 416.626 637.15 416.214 637.796 415.917C638.443 415.621 639.155 415.472 639.932 415.472C640.81 415.472 641.578 415.615 642.237 415.899C642.895 416.178 643.408 416.59 643.776 417.136C644.144 417.682 644.328 418.358 644.328 419.165C644.328 419.574 644.233 419.972 644.043 420.357C643.853 420.737 643.581 421.081 643.225 421.39C642.875 421.692 642.447 421.935 641.943 422.119C641.439 422.297 640.872 422.386 640.244 422.386H638.464V421.025ZM638.464 422.974V421.648H640.244C640.95 421.648 641.569 421.728 642.103 421.888C642.637 422.048 643.085 422.28 643.447 422.582C643.809 422.879 644.082 423.232 644.266 423.641C644.45 424.044 644.542 424.492 644.542 424.985C644.542 425.59 644.426 426.13 644.194 426.604C643.963 427.073 643.637 427.47 643.216 427.797C642.8 428.123 642.314 428.372 641.756 428.544C641.199 428.71 640.591 428.793 639.932 428.793C639.386 428.793 638.849 428.719 638.321 428.571C637.799 428.417 637.325 428.188 636.898 427.886C636.477 427.577 636.138 427.192 635.883 426.729C635.634 426.26 635.51 425.705 635.51 425.065H638.081C638.081 425.397 638.164 425.694 638.33 425.955C638.497 426.216 638.725 426.42 639.016 426.569C639.312 426.717 639.641 426.791 640.003 426.791C640.413 426.791 640.763 426.717 641.053 426.569C641.35 426.414 641.575 426.201 641.73 425.928C641.89 425.649 641.97 425.326 641.97 424.958C641.97 424.483 641.884 424.104 641.712 423.819C641.54 423.528 641.294 423.315 640.973 423.178C640.653 423.042 640.273 422.974 639.834 422.974H638.464Z" fill="#B58863"/>
<rect x="171.203" y="331.885" width="79.7304" height="79.7304" fill="#F0D9B5"/>
<rect x="330.664" y="331.885" width="79.7304" height="79.7304" fill="#F0D9B5"/>
<rect x="490.125" y="331.885" width="79.7304" height="79.7304" fill="#F0D9B5"/>
<rect x="11.7427" y="172.424" width="79.7304" height="79.7304" fill="#F0D9B5"/>
<rect x="91.4731" y="252.154" width="79.7304" height="79.7304" fill="#F0D9B5"/>
<rect x="250.934" y="252.154" width="79.7304" height="79.7304" fill="#F0D9B5"/>
<rect x="410.395" y="252.154" width="79.7304" height="79.7304" fill="#F0D9B5"/>
<rect x="569.855" y="252.154" width="79.7304" height="79.7304" fill="#F0D9B5"/>
<path d="M638.25 263.255L636.204 262.765L636.942 256.198H644.221V258.272H639.051L638.731 261.146C638.903 261.045 639.164 260.938 639.514 260.825C639.864 260.707 640.255 260.648 640.688 260.648C641.317 260.648 641.875 260.745 642.361 260.941C642.848 261.137 643.26 261.422 643.598 261.795C643.942 262.169 644.203 262.626 644.381 263.166C644.559 263.706 644.648 264.317 644.648 264.999C644.648 265.574 644.559 266.123 644.381 266.645C644.203 267.161 643.933 267.624 643.572 268.033C643.21 268.437 642.756 268.754 642.21 268.985C641.664 269.217 641.018 269.332 640.27 269.332C639.713 269.332 639.173 269.249 638.651 269.083C638.135 268.917 637.669 268.671 637.254 268.345C636.844 268.018 636.515 267.624 636.266 267.161C636.023 266.693 635.895 266.159 635.883 265.559H638.428C638.464 265.927 638.559 266.245 638.713 266.512C638.873 266.773 639.084 266.974 639.345 267.117C639.606 267.259 639.911 267.33 640.261 267.33C640.588 267.33 640.866 267.268 641.098 267.143C641.329 267.019 641.516 266.847 641.658 266.627C641.801 266.402 641.905 266.141 641.97 265.844C642.041 265.542 642.077 265.215 642.077 264.865C642.077 264.515 642.035 264.198 641.952 263.913C641.869 263.629 641.741 263.382 641.569 263.175C641.397 262.967 641.178 262.807 640.911 262.694C640.65 262.581 640.344 262.525 639.994 262.525C639.52 262.525 639.152 262.599 638.891 262.748C638.636 262.896 638.422 263.065 638.25 263.255Z" fill="#B58863"/>
<rect x="171.203" y="172.424" width="79.7304" height="79.7304" fill="#F0D9B5"/>
<rect x="330.664" y="172.424" width="79.7304" height="79.7304" fill="#F0D9B5"/>
<rect x="490.125" y="172.424" width="79.7304" height="79.7304" fill="#F0D9B5"/>
<rect x="11.7427" y="12.9632" width="79.7304" height="79.7304" fill="#F0D9B5"/>
<rect x="91.4731" y="92.6936" width="79.7304" height="79.7304" fill="#F0D9B5"/>
<rect x="250.934" y="92.6936" width="79.7304" height="79.7304" fill="#F0D9B5"/>
<rect x="410.395" y="92.6936" width="79.7304" height="79.7304" fill="#F0D9B5"/>
<rect x="569.855" y="92.6936" width="79.7304" height="79.7304" fill="#F0D9B5"/>
<path d="M644.639 96.7374V98.1167L639.63 109.694H636.924L641.934 98.7396H635.483V96.7374H644.639Z" fill="#B58863"/>
<rect x="171.203" y="12.9632" width="79.7304" height="79.7304" fill="#F0D9B5"/>
<rect x="330.664" y="12.9632" width="79.7304" height="79.7304" fill="#F0D9B5"/>
<rect x="490.125" y="12.9632" width="79.7304" height="79.7304" fill="#F0D9B5"/>
<rect x="250.934" y="571.076" width="79.7304" height="79.7304" fill="#F0D9B5"/>
<path d="M262.173 643.782V632.214H264.753V645.882H262.431L262.173 643.782ZM256.086 641.183V640.996C256.086 640.261 256.169 639.593 256.335 638.994C256.501 638.389 256.745 637.87 257.065 637.437C257.385 637.004 257.78 636.669 258.249 636.432C258.717 636.194 259.251 636.076 259.85 636.076C260.414 636.076 260.906 636.194 261.327 636.432C261.755 636.669 262.116 637.007 262.413 637.446C262.716 637.879 262.959 638.392 263.143 638.985C263.327 639.573 263.46 640.216 263.543 640.916V641.326C263.46 641.996 263.327 642.619 263.143 643.194C262.959 643.77 262.716 644.274 262.413 644.707C262.116 645.134 261.755 645.466 261.327 645.704C260.9 645.941 260.402 646.06 259.832 646.06C259.233 646.06 258.699 645.938 258.231 645.695C257.768 645.452 257.376 645.11 257.056 644.672C256.742 644.233 256.501 643.716 256.335 643.123C256.169 642.53 256.086 641.883 256.086 641.183ZM258.649 640.996V641.183C258.649 641.581 258.679 641.952 258.738 642.296C258.803 642.64 258.907 642.945 259.049 643.212C259.198 643.473 259.388 643.678 259.619 643.826C259.856 643.969 260.144 644.04 260.482 644.04C260.921 644.04 261.283 643.942 261.568 643.746C261.852 643.544 262.069 643.269 262.217 642.919C262.371 642.568 262.46 642.165 262.484 641.708V640.543C262.466 640.169 262.413 639.834 262.324 639.537C262.241 639.235 262.116 638.976 261.95 638.763C261.79 638.549 261.588 638.383 261.345 638.265C261.108 638.146 260.826 638.087 260.5 638.087C260.168 638.087 259.883 638.164 259.646 638.318C259.408 638.466 259.215 638.671 259.067 638.932C258.925 639.193 258.818 639.501 258.747 639.857C258.682 640.207 258.649 640.587 258.649 640.996Z" fill="#B58863"/>
<rect x="410.395" y="571.076" width="79.7304" height="79.7304" fill="#F0D9B5"/>
<path d="M419.213 645.882H416.632V635.399C416.632 634.67 416.775 634.056 417.06 633.557C417.35 633.053 417.757 632.673 418.279 632.418C418.807 632.157 419.433 632.027 420.156 632.027C420.394 632.027 420.622 632.045 420.841 632.08C421.061 632.11 421.275 632.148 421.482 632.196L421.455 634.127C421.343 634.097 421.224 634.076 421.1 634.065C420.975 634.053 420.83 634.047 420.664 634.047C420.355 634.047 420.091 634.1 419.872 634.207C419.658 634.308 419.495 634.459 419.382 634.661C419.269 634.862 419.213 635.109 419.213 635.399V645.882ZM421.135 636.254V638.069H415.2V636.254H421.135Z" fill="#B58863"/>
<rect x="569.855" y="571.076" width="79.7304" height="79.7304" fill="#F0D9B5"/>
<path d="M577.909 632.214V645.882H575.346V632.214H577.909ZM577.544 640.729H576.841C576.847 640.059 576.936 639.442 577.108 638.879C577.28 638.309 577.526 637.817 577.846 637.401C578.167 636.98 578.549 636.654 578.994 636.423C579.445 636.191 579.944 636.076 580.489 636.076C580.964 636.076 581.394 636.144 581.78 636.28C582.171 636.411 582.506 636.624 582.785 636.921C583.07 637.212 583.289 637.594 583.444 638.069C583.598 638.543 583.675 639.119 583.675 639.795V645.882H581.094V639.777C581.094 639.35 581.032 639.015 580.908 638.772C580.789 638.523 580.614 638.348 580.383 638.247C580.157 638.14 579.878 638.087 579.546 638.087C579.178 638.087 578.864 638.155 578.603 638.291C578.348 638.428 578.143 638.618 577.989 638.861C577.835 639.098 577.722 639.377 577.651 639.697C577.579 640.018 577.544 640.362 577.544 640.729Z" fill="#B58863"/>
<path d="M642.086 575.093V588.076H639.523V578.048L636.444 579.026V577.006L641.81 575.093H642.086Z" fill="#B58863"/>
<path d="M40.257 600.788C40.6171 600.939 41.3373 601.355 41.3373 601.809C41.3373 602.262 39.6089 615.081 38.7447 621.434C38.6007 621.85 38.183 622.716 37.6645 622.852C37.146 622.988 46.6664 622.908 51.4914 622.852C56.3164 622.908 65.8368 622.988 65.3183 622.852C64.7998 622.716 64.3821 621.85 64.238 621.434C63.3739 615.081 61.6455 602.262 61.6455 601.809C61.6455 601.355 62.3657 600.939 62.7257 600.788H51.4914H40.257Z" fill="white" stroke="black" stroke-width="0.569503"/>
<rect x="36.0588" y="597.877" width="30.865" height="2.62564" rx="1.31282" fill="white" stroke="black" stroke-width="0.569503"/>
<rect x="37.6317" y="621.082" width="27.7192" height="3.69024" fill="white" stroke="black" stroke-width="0.569503"/>
<rect x="33.921" y="625.341" width="35.1406" height="3.90308" fill="white" stroke="black" stroke-width="0.569503"/>
<rect x="31.5555" y="629.814" width="39.8715" height="3.90308" fill="white" stroke="black" stroke-width="0.569503"/>
<path d="M66.8982 588.031L66.178 598.018L62.1317 597.696H37.0247L35.5974 588.095H42.8635L43.2528 595.382H47.9671V588.095H54.8872V595.382H62.1317L62.0645 588.108L66.8982 588.031Z" fill="#F1F1F1"/>
<path d="M65.4529 593.791L65.7978 588.108H66.847L66.4721 593.791H66.4796L66.3726 595.3L66.3224 596.061H66.3186L66.1781 598.044H36.7942L35.5521 588.132H41.0394L41.4853 593.791H44.7091L44.2289 588.132H51.774V593.791H56.4039V588.132H63.1601V593.791H65.4529Z" fill="white" stroke="black" stroke-width="0.569503"/>
<path d="M127.67 581.485C125.744 581.485 126.185 585.411 126.646 587.374C126.126 588.856 124.399 589.511 123.395 590.272C122.392 591.032 123.274 592.157 121.479 593.039C119.685 593.921 117.77 595.532 114.333 598.269C110.897 601.006 108.83 601.979 106.64 602.253C104.889 602.472 104.978 603.803 105.241 604.442L110.472 610.28H112.813C112.965 609.429 113.999 607.848 116.371 607.513C118.743 607.179 124.155 608.425 127.47 606.723C130.122 605.36 131.879 602.607 132.426 601.401L131.56 603.932C129.371 609.952 120.101 613.054 115.74 613.852C114.166 617.102 118.245 623.686 120.481 626.572V627.594H143.598V626.656C146.834 623.419 148.677 616.53 149.194 613.49C149.311 616.495 147.218 622.558 146.157 625.214L153.376 627.627C157.672 621.068 159.597 610.064 153.923 599.004C149.372 590.132 140.126 587.355 136.072 587.076L135.864 588.245C132.668 582.714 129.07 581.434 127.67 581.485Z" fill="white" stroke="black" stroke-width="0.569503"/>
<rect x="117.753" y="627.764" width="27.7192" height="3.69024" fill="white" stroke="black" stroke-width="0.569503"/>
<rect x="114.042" y="632.024" width="35.1406" height="3.90308" fill="white" stroke="black" stroke-width="0.569503"/>
<rect x="111.676" y="636.496" width="39.8715" height="3.90308" fill="white" stroke="black" stroke-width="0.569503"/>
<path d="M215.012 583.654C215.012 585.828 213.243 587.593 211.058 587.593C208.873 587.593 207.104 585.828 207.104 583.654C207.104 581.479 208.873 579.715 211.058 579.715C213.243 579.715 215.012 581.479 215.012 583.654Z" fill="white" stroke="black" stroke-width="0.569503"/>
<rect x="207.535" y="586.933" width="6.93232" height="0.49095" rx="0.245475" fill="white" stroke="black" stroke-width="0.49095"/>
<path d="M200.292 629.012V627.872C203.001 624.763 204.641 620.704 204.641 616.263C204.641 612.639 203.548 609.267 201.673 606.46H220.328C218.453 609.267 217.36 612.639 217.36 616.263C217.36 620.704 219 624.763 221.709 627.872V629.012H200.292Z" fill="white" stroke="black" stroke-width="0.569503"/>
<path fill-rule="evenodd" clip-rule="evenodd" d="M211.001 587.179H208.891L200.07 599.815C199.299 601.13 198.789 604.242 202.919 606.175H211.001H219.082C223.212 604.242 222.702 601.13 221.931 599.815L213.11 587.179H211.001Z" fill="white"/>
<path d="M208.891 587.179V586.894H208.743L208.658 587.016L208.891 587.179ZM200.07 599.815L199.837 599.652L199.83 599.661L199.825 599.671L200.07 599.815ZM202.919 606.175L202.798 606.433L202.856 606.46H202.919V606.175ZM219.082 606.175V606.46H219.145L219.203 606.433L219.082 606.175ZM221.931 599.815L222.176 599.671L222.171 599.661L222.164 599.652L221.931 599.815ZM213.11 587.179L213.343 587.016L213.258 586.894H213.11V587.179ZM208.891 587.463H211.001V586.894H208.891V587.463ZM200.304 599.978L209.125 587.342L208.658 587.016L199.837 599.652L200.304 599.978ZM203.04 605.917C201.036 604.98 200.201 603.78 199.933 602.695C199.662 601.596 199.96 600.565 200.316 599.959L199.825 599.671C199.409 600.38 199.067 601.562 199.38 602.831C199.697 604.115 200.672 605.438 202.798 606.433L203.04 605.917ZM211.001 605.89H202.919V606.46H211.001V605.89ZM211.001 606.46H219.082V605.89H211.001V606.46ZM219.203 606.433C221.33 605.438 222.304 604.115 222.621 602.831C222.934 601.562 222.592 600.38 222.176 599.671L221.685 599.959C222.041 600.565 222.339 601.596 222.068 602.695C221.8 603.78 220.965 604.98 218.961 605.917L219.203 606.433ZM222.164 599.652L213.343 587.016L212.876 587.342L221.697 599.978L222.164 599.652ZM213.11 586.894H211.001V587.463H213.11V586.894Z" fill="black"/>
<rect x="199.251" y="606.46" width="23.5001" height="2.61427" rx="1.30714" fill="white" stroke="black" stroke-width="0.569503"/>
<rect x="197.141" y="629.582" width="27.7192" height="3.67508" fill="white" stroke="black" stroke-width="0.569503"/>
<rect x="193.43" y="633.826" width="35.1406" height="3.88716" fill="white" stroke="black" stroke-width="0.569503"/>
<rect x="191.065" y="638.283" width="39.8715" height="3.88716" fill="white" stroke="black" stroke-width="0.569503"/>
<rect x="278.981" y="602.67" width="23.5001" height="0.958768" rx="0.479384" fill="white" stroke="black" stroke-width="0.569503"/>
<path d="M280.023 626.756V625.61C282.731 622.491 284.371 618.417 284.371 613.961C284.371 610.323 283.278 606.939 281.402 604.121H300.06C298.184 606.939 297.091 610.323 297.091 613.961C297.091 618.417 298.73 622.491 301.439 625.61V626.756H280.023Z" fill="white" stroke="black" stroke-width="0.569503"/>
<rect x="278.981" y="604.121" width="23.5001" height="2.62564" rx="1.31282" fill="white" stroke="black" stroke-width="0.569503"/>
<rect x="276.871" y="627.325" width="27.7192" height="3.69024" fill="white" stroke="black" stroke-width="0.569503"/>
<rect x="273.16" y="631.585" width="35.1406" height="3.90308" fill="white" stroke="black" stroke-width="0.569503"/>
<rect x="270.795" y="636.058" width="39.8715" height="3.90308" fill="white" stroke="black" stroke-width="0.569503"/>
<mask id="path-108-inside-1_823_774" fill="white">
<path fill-rule="evenodd" clip-rule="evenodd" d="M293.433 588.403C294.104 587.732 294.519 586.805 294.519 585.781C294.519 583.733 292.858 582.072 290.81 582.072C288.762 582.072 287.101 583.733 287.101 585.781C287.101 586.805 287.516 587.732 288.187 588.403L284.582 592.675L290.81 596.698L297.038 592.675L293.433 588.403Z"/>
</mask>
<path fill-rule="evenodd" clip-rule="evenodd" d="M293.433 588.403C294.104 587.732 294.519 586.805 294.519 585.781C294.519 583.733 292.858 582.072 290.81 582.072C288.762 582.072 287.101 583.733 287.101 585.781C287.101 586.805 287.516 587.732 288.187 588.403L284.582 592.675L290.81 596.698L297.038 592.675L293.433 588.403Z" fill="white"/>
<path d="M293.433 588.403L293.031 588.001L292.661 588.371L292.998 588.771L293.433 588.403ZM288.187 588.403L288.622 588.771L288.959 588.371L288.589 588.001L288.187 588.403ZM284.582 592.675L284.147 592.307L283.729 592.802L284.273 593.153L284.582 592.675ZM290.81 596.698L290.501 597.177L290.81 597.376L291.119 597.177L290.81 596.698ZM297.038 592.675L297.347 593.153L297.891 592.802L297.474 592.307L297.038 592.675ZM293.95 585.781C293.95 586.648 293.599 587.432 293.031 588.001L293.836 588.806C294.609 588.032 295.089 586.962 295.089 585.781H293.95ZM290.81 582.642C292.544 582.642 293.95 584.048 293.95 585.781H295.089C295.089 583.419 293.173 581.503 290.81 581.503V582.642ZM287.671 585.781C287.671 584.048 289.076 582.642 290.81 582.642V581.503C288.447 581.503 286.532 583.419 286.532 585.781H287.671ZM288.589 588.001C288.021 587.432 287.671 586.648 287.671 585.781H286.532C286.532 586.962 287.011 588.032 287.784 588.806L288.589 588.001ZM287.751 588.036L284.147 592.307L285.017 593.042L288.622 588.771L287.751 588.036ZM284.273 593.153L290.501 597.177L291.119 596.22L284.891 592.196L284.273 593.153ZM291.119 597.177L297.347 593.153L296.729 592.196L290.501 596.22L291.119 597.177ZM297.474 592.307L293.869 588.036L292.998 588.771L296.603 593.042L297.474 592.307Z" fill="black" mask="url(#path-108-inside-1_823_774)"/>
<path d="M280.771 603.149C280.078 601.243 278.011 596.863 275.288 594.594C272.565 592.325 274.878 591.789 276.375 591.805C277.161 591.97 279.09 592.53 280.52 593.447C281.431 594.031 281.378 593.186 281.315 592.161C281.253 591.173 281.181 590.019 281.951 589.816C283.506 589.407 284.736 590.485 286.929 592.408L286.985 592.457C288.133 593.463 288.426 592.519 288.783 591.368C289.12 590.284 289.514 589.016 290.731 589.016C291.948 589.016 292.342 590.284 292.679 591.368C293.036 592.519 293.33 593.463 294.477 592.457L294.534 592.408C296.726 590.485 297.957 589.407 299.511 589.816C300.281 590.019 300.209 591.173 300.147 592.161C300.084 593.186 300.031 594.031 300.942 593.447C302.372 592.53 304.301 591.97 305.087 591.805C306.584 591.789 308.897 592.325 306.174 594.594C303.452 596.863 301.384 601.243 300.691 603.149H280.771Z" fill="white" stroke="black" stroke-width="0.569503"/>
<path d="M384.11 597.06C384.11 599.466 382.571 602.507 380.027 604.959C377.49 607.405 373.998 609.219 370.157 609.219C366.316 609.219 362.824 607.405 360.287 604.959C357.743 602.507 356.204 599.466 356.204 597.06C356.204 594.681 357.716 592.487 360.243 590.873C362.767 589.262 366.272 588.256 370.157 588.256C374.043 588.256 377.547 589.262 380.072 590.873C382.599 592.487 384.11 594.681 384.11 597.06Z" fill="white" stroke="black" stroke-width="0.569503"/>
<path d="M369.07 583.728H369.355V583.444V580.019H370.774V583.444V583.728H371.058H374.483V585.147H371.058H370.774V585.432V588.857H369.355V585.432V585.147H369.07H365.645V583.728H369.07Z" fill="white" stroke="black" stroke-width="0.569503"/>
<rect x="358.314" y="605.142" width="23.5001" height="0.958768" rx="0.479384" fill="white" stroke="black" stroke-width="0.569503"/>
<path d="M359.356 629.228V628.083C362.064 624.963 363.704 620.889 363.704 616.433C363.704 612.795 362.611 609.411 360.735 606.593H379.393C377.517 609.411 376.424 612.795 376.424 616.433C376.424 620.889 378.064 624.963 380.772 628.083V629.228H359.356Z" fill="white" stroke="black" stroke-width="0.569503"/>
<rect x="358.314" y="606.593" width="23.5001" height="2.62564" rx="1.31282" fill="white" stroke="black" stroke-width="0.569503"/>
<rect x="356.204" y="629.798" width="27.7192" height="3.69024" fill="white" stroke="black" stroke-width="0.569503"/>
<rect x="352.494" y="634.057" width="35.1406" height="3.90308" fill="white" stroke="black" stroke-width="0.569503"/>
<rect x="350.128" y="638.53" width="39.8715" height="3.90308" fill="white" stroke="black" stroke-width="0.569503"/>
<circle cx="370.146" cy="584.4" r="1.91737" fill="white" stroke="black" stroke-width="0.569503"/>
<path d="M526.018 581.485C524.092 581.485 524.533 585.411 524.994 587.374C524.474 588.856 522.747 589.511 521.743 590.272C520.74 591.032 521.622 592.157 519.828 593.039C518.034 593.921 516.118 595.532 512.682 598.269C509.245 601.006 507.178 601.979 504.988 602.253C503.237 602.471 503.326 603.803 503.59 604.442L508.82 610.28H511.161C511.313 609.429 512.347 607.848 514.719 607.513C517.091 607.179 522.504 608.425 525.818 606.723C528.47 605.36 530.227 602.607 530.775 601.401L529.909 603.932C527.719 609.952 518.449 613.054 514.088 613.852C512.514 617.102 516.593 623.686 518.83 626.572V627.594H541.946V626.656C545.183 623.419 547.025 616.53 547.542 613.49C547.659 616.495 545.566 622.558 544.505 625.214L551.724 627.627C556.021 621.068 557.946 610.064 552.272 599.004C547.72 590.131 538.474 587.355 534.42 587.076L534.212 588.245C531.017 582.714 527.418 581.434 526.018 581.485Z" fill="white" stroke="black" stroke-width="0.569503"/>
<rect x="516.101" y="627.764" width="27.7192" height="3.69024" fill="white" stroke="black" stroke-width="0.569503"/>
<rect x="512.39" y="632.024" width="35.1406" height="3.90308" fill="white" stroke="black" stroke-width="0.569503"/>
<rect x="510.024" y="636.496" width="39.8715" height="3.90308" fill="white" stroke="black" stroke-width="0.569503"/>
<path d="M453.899 583.654C453.899 585.828 452.13 587.593 449.945 587.593C447.76 587.593 445.991 585.828 445.991 583.654C445.991 581.479 447.76 579.715 449.945 579.715C452.13 579.715 453.899 581.479 453.899 583.654Z" fill="white" stroke="black" stroke-width="0.569503"/>
<rect x="446.422" y="586.933" width="6.93232" height="0.49095" rx="0.245475" fill="white" stroke="black" stroke-width="0.49095"/>
<path d="M439.18 629.012V627.872C441.888 624.763 443.528 620.704 443.528 616.263C443.528 612.638 442.435 609.267 440.56 606.46H459.216C457.34 609.267 456.248 612.638 456.248 616.263C456.248 620.704 457.887 624.763 460.596 627.872V629.012H439.18Z" fill="white" stroke="black" stroke-width="0.569503"/>
<path fill-rule="evenodd" clip-rule="evenodd" d="M449.888 587.179H447.778L438.958 599.815C438.186 601.13 437.676 604.242 441.806 606.175H449.888H457.969C462.1 604.242 461.589 601.13 460.818 599.815L451.997 587.179H449.888Z" fill="white"/>
<path d="M447.778 587.179V586.894H447.63L447.545 587.016L447.778 587.179ZM438.958 599.815L438.724 599.652L438.718 599.661L438.712 599.671L438.958 599.815ZM441.806 606.175L441.686 606.433L441.743 606.46H441.806V606.175ZM457.969 606.175V606.46H458.032L458.09 606.433L457.969 606.175ZM460.818 599.815L461.064 599.671L461.058 599.661L461.051 599.652L460.818 599.815ZM451.997 587.179L452.231 587.016L452.146 586.894H451.997V587.179ZM447.778 587.463H449.888V586.894H447.778V587.463ZM439.191 599.978L448.012 587.342L447.545 587.016L438.724 599.652L439.191 599.978ZM441.927 605.917C439.924 604.98 439.088 603.78 438.82 602.695C438.549 601.596 438.847 600.565 439.203 599.959L438.712 599.671C438.296 600.379 437.954 601.562 438.267 602.831C438.584 604.115 439.559 605.438 441.686 606.433L441.927 605.917ZM449.888 605.89H441.806V606.46H449.888V605.89ZM449.888 606.46H457.969V605.89H449.888V606.46ZM458.09 606.433C460.217 605.438 461.191 604.115 461.508 602.831C461.822 601.562 461.479 600.379 461.064 599.671L460.572 599.959C460.928 600.565 461.227 601.596 460.955 602.695C460.688 603.78 459.852 604.98 457.848 605.917L458.09 606.433ZM461.051 599.652L452.231 587.016L451.764 587.342L460.584 599.978L461.051 599.652ZM451.997 586.894H449.888V587.463H451.997V586.894Z" fill="black"/>
<rect x="438.138" y="606.46" width="23.5001" height="2.61427" rx="1.30714" fill="white" stroke="black" stroke-width="0.569503"/>
<rect x="436.028" y="629.582" width="27.7192" height="3.67508" fill="white" stroke="black" stroke-width="0.569503"/>
<rect x="432.317" y="633.826" width="35.1406" height="3.88716" fill="white" stroke="black" stroke-width="0.569503"/>
<rect x="429.952" y="638.283" width="39.8715" height="3.88716" fill="white" stroke="black" stroke-width="0.569503"/>
<path d="M598.066 600.788C598.426 600.939 599.146 601.355 599.146 601.809C599.146 602.262 597.418 615.081 596.554 621.434C596.41 621.85 595.992 622.715 595.473 622.852C594.955 622.988 604.475 622.908 609.3 622.852C614.125 622.908 623.646 622.988 623.127 622.852C622.609 622.715 622.191 621.85 622.047 621.434C621.183 615.081 619.454 602.262 619.454 601.809C619.454 601.355 620.175 600.939 620.535 600.788H609.3H598.066Z" fill="white" stroke="black" stroke-width="0.569503"/>
<rect x="593.868" y="597.877" width="30.865" height="2.62564" rx="1.31282" fill="white" stroke="black" stroke-width="0.569503"/>
<rect x="595.441" y="621.082" width="27.7192" height="3.69024" fill="white" stroke="black" stroke-width="0.569503"/>
<rect x="591.73" y="625.341" width="35.1406" height="3.90308" fill="white" stroke="black" stroke-width="0.569503"/>
<rect x="589.365" y="629.814" width="39.8715" height="3.90308" fill="white" stroke="black" stroke-width="0.569503"/>
<path d="M624.707 588.031L623.987 598.018L619.941 597.696H594.834L593.406 588.094H600.673L601.062 595.382H605.776V588.094H612.696V595.382H619.941L619.874 588.108L624.707 588.031Z" fill="#F1F1F1"/>
<path d="M623.262 593.791L623.607 588.108H624.656L624.281 593.791H624.289L624.182 595.3L624.132 596.061H624.128L623.987 598.044H594.603L593.361 588.132H598.849L599.294 593.791H602.518L602.038 588.132H609.583V593.791H614.213V588.132H620.969V593.791H623.262Z" fill="white" stroke="black" stroke-width="0.569503"/>
<rect x="36.0588" y="39.9068" width="30.865" height="2.62564" rx="1.31282" fill="#333333" stroke="black" stroke-width="0.569503"/>
<rect x="37.6317" y="63.1112" width="27.7192" height="3.69024" fill="#333333" stroke="black" stroke-width="0.569503"/>
<rect x="33.921" y="67.3709" width="35.1406" height="3.90308" fill="#333333" stroke="black" stroke-width="0.569503"/>
<rect x="31.5555" y="71.8434" width="39.8715" height="3.90308" fill="#333333" stroke="black" stroke-width="0.569503"/>
<path d="M40.257 42.8172C40.6171 42.9684 41.3373 43.3844 41.3373 43.8381C41.3373 44.2919 39.6089 57.1105 38.7447 63.4631C38.6007 63.8791 38.183 64.745 37.6645 64.8811C37.146 65.0172 46.6664 64.9378 51.4914 64.8811C56.3164 64.9378 65.8368 65.0172 65.3183 64.8811C64.7998 64.745 64.3821 63.8791 64.238 63.4631C63.3739 57.1105 61.6455 44.2919 61.6455 43.8381C61.6455 43.3844 62.3657 42.9684 62.7257 42.8172H51.4914H40.257Z" fill="#333333" stroke="black" stroke-width="0.569503"/>
<path d="M66.8982 30.0601L66.178 40.0476L62.1317 39.7256H37.0247L35.5974 30.1239H42.8635L43.2528 37.4117H47.9671V30.1239H54.8872V37.4117H62.1317L62.0645 30.1378L66.8982 30.0601Z" fill="#3D3D3D" stroke="black" stroke-width="0.569503"/>
<path d="M65.4529 35.8205L65.7978 30.1375H66.847L66.4721 35.8205H66.4796L66.3726 37.3299L66.3224 38.0907H66.3186L66.1781 40.0731H36.7942L35.5521 30.1617H41.0394L41.4853 35.8205H44.7091L44.2289 30.1617H51.774V35.8205H56.4039V30.1617H63.1601V35.8205H65.4529Z" fill="#333333" stroke="black" stroke-width="0.569503"/>
<path d="M127.67 23.7989C125.744 23.7989 126.185 27.7254 126.646 29.6886C126.126 31.1702 124.399 31.8257 123.395 32.5859C122.392 33.3461 123.274 34.4712 121.479 35.353C119.685 36.2349 117.77 37.8465 114.333 40.5833C110.897 43.32 108.83 44.2931 106.64 44.5667C104.889 44.7857 104.978 46.1176 105.241 46.7561L110.472 52.5946H112.813C112.965 51.7431 113.999 50.1619 116.371 49.8274C118.743 49.4929 124.155 50.7396 127.47 49.0368C130.122 47.6745 131.879 44.9215 132.426 43.7153L131.56 46.2461C129.371 52.2665 120.101 55.368 115.74 56.1661C114.166 59.4158 118.245 65.9999 120.481 68.8858V69.9079H143.598V68.9701C146.834 65.7333 148.677 58.8444 149.194 55.8046C149.311 58.8094 147.218 64.8723 146.157 67.5281L153.376 69.9412C157.672 63.382 159.597 52.3786 153.923 41.3179C149.372 32.4457 140.126 29.6695 136.072 29.3904L135.864 30.5592C132.668 25.0281 129.07 23.7477 127.67 23.7989Z" fill="#333333" stroke="black" stroke-width="0.569503"/>
<rect x="117.753" y="70.0782" width="27.7192" height="3.69024" fill="#333333" stroke="black" stroke-width="0.569503"/>
<rect x="114.042" y="74.3379" width="35.1406" height="3.90308" fill="#333333" stroke="black" stroke-width="0.569503"/>
<rect x="111.676" y="78.8105" width="39.8715" height="3.90308" fill="#333333" stroke="black" stroke-width="0.569503"/>
<circle cx="211.01" cy="25.802" r="3.95403" fill="#333333" stroke="black" stroke-width="0.569503"/>
<rect x="207.487" y="29.093" width="6.93057" height="0.492704" rx="0.246352" fill="#333333" stroke="black" stroke-width="0.492704"/>
<path d="M200.244 71.3233V70.1777C202.953 67.0579 204.592 62.9841 204.592 58.5281C204.592 54.8898 203.499 51.5061 201.623 48.6884H220.281C218.405 51.5061 217.312 54.8898 217.312 58.5281C217.312 62.9841 218.952 67.0579 221.66 70.1777V71.3233H200.244Z" fill="#333333" stroke="black" stroke-width="0.569503"/>
<path fill-rule="evenodd" clip-rule="evenodd" d="M210.952 29.3394H208.843L200.022 42.0211C199.251 43.3403 198.74 46.4638 202.871 48.4037H210.952H219.034C223.164 46.4638 222.654 43.3403 221.882 42.0211L213.062 29.3394H210.952Z" fill="#333333"/>
<path d="M208.843 29.3394V29.0546H208.694L208.609 29.1768L208.843 29.3394ZM200.022 42.0211L199.788 41.8585L199.782 41.8677L199.776 41.8773L200.022 42.0211ZM202.871 48.4037L202.75 48.6615L202.807 48.6885H202.871V48.4037ZM219.034 48.4037V48.6885H219.097L219.155 48.6615L219.034 48.4037ZM221.882 42.0211L222.128 41.8773L222.123 41.8677L222.116 41.8585L221.882 42.0211ZM213.062 29.3394L213.295 29.1768L213.21 29.0546H213.062V29.3394ZM208.843 29.6241H210.952V29.0546H208.843V29.6241ZM200.256 42.1837L209.077 29.502L208.609 29.1768L199.788 41.8585L200.256 42.1837ZM202.992 48.146C200.989 47.2051 200.153 46.0008 199.885 44.9116C199.613 43.8084 199.912 42.7733 200.268 42.1648L199.776 41.8773C199.361 42.5881 199.018 43.7744 199.332 45.0477C199.648 46.3351 200.623 47.6624 202.75 48.6615L202.992 48.146ZM210.952 48.119H202.871V48.6885H210.952V48.119ZM210.952 48.6885H219.034V48.119H210.952V48.6885ZM219.155 48.6615C221.282 47.6624 222.256 46.3351 222.573 45.0477C222.886 43.7744 222.544 42.5881 222.128 41.8773L221.637 42.1648C221.992 42.7733 222.291 43.8084 222.02 44.9116C221.752 46.0008 220.916 47.2051 218.913 48.146L219.155 48.6615ZM222.116 41.8585L213.295 29.1768L212.828 29.502L221.649 42.1837L222.116 41.8585ZM213.062 29.0546H210.952V29.6241H213.062V29.0546Z" fill="black"/>
<rect x="199.202" y="48.6884" width="23.5001" height="2.62564" rx="1.31282" fill="#333333" stroke="black" stroke-width="0.569503"/>
<rect x="197.093" y="71.8928" width="27.7192" height="3.69024" fill="#333333" stroke="black" stroke-width="0.569503"/>
<rect x="193.382" y="76.1525" width="35.1406" height="3.90308" fill="#333333" stroke="black" stroke-width="0.569503"/>
<rect x="191.016" y="80.6251" width="39.8715" height="3.90308" fill="#333333" stroke="black" stroke-width="0.569503"/>
<rect x="278.981" y="44.8419" width="23.5001" height="0.958768" rx="0.479384" fill="#333333" stroke="black" stroke-width="0.569503"/>
<path d="M280.023 68.9278V67.7822C282.731 64.6624 284.371 60.5886 284.371 56.1326C284.371 52.4943 283.278 49.1106 281.402 46.2929H300.06C298.184 49.1106 297.091 52.4943 297.091 56.1326C297.091 60.5886 298.73 64.6624 301.439 67.7822V68.9278H280.023Z" fill="#333333" stroke="black" stroke-width="0.569503"/>
<rect x="278.981" y="46.2929" width="23.5001" height="2.62564" rx="1.31282" fill="#333333" stroke="black" stroke-width="0.569503"/>
<rect x="276.871" y="69.4973" width="27.7192" height="3.69024" fill="#333333" stroke="black" stroke-width="0.569503"/>
<rect x="273.16" y="73.757" width="35.1406" height="3.90308" fill="#333333" stroke="black" stroke-width="0.569503"/>
<rect x="270.795" y="78.2296" width="39.8715" height="3.90308" fill="#333333" stroke="black" stroke-width="0.569503"/>
<mask id="path-166-inside-2_823_774" fill="white">
<path fill-rule="evenodd" clip-rule="evenodd" d="M293.433 30.5751C294.104 29.904 294.519 28.9771 294.519 27.9533C294.519 25.9049 292.858 24.2443 290.81 24.2443C288.762 24.2443 287.101 25.9049 287.101 27.9533C287.101 28.9771 287.516 29.904 288.187 30.5751L284.582 34.8464L290.81 38.8702L297.038 34.8464L293.433 30.5751Z"/>
</mask>
<path fill-rule="evenodd" clip-rule="evenodd" d="M293.433 30.5751C294.104 29.904 294.519 28.9771 294.519 27.9533C294.519 25.9049 292.858 24.2443 290.81 24.2443C288.762 24.2443 287.101 25.9049 287.101 27.9533C287.101 28.9771 287.516 29.904 288.187 30.5751L284.582 34.8464L290.81 38.8702L297.038 34.8464L293.433 30.5751Z" fill="#333333"/>
<path d="M293.433 30.5751L293.031 30.1725L292.661 30.5426L292.998 30.9424L293.433 30.5751ZM288.187 30.5751L288.622 30.9424L288.959 30.5426L288.589 30.1725L288.187 30.5751ZM284.582 34.8464L284.147 34.4791L283.729 34.9736L284.273 35.3247L284.582 34.8464ZM290.81 38.8702L290.501 39.3486L290.81 39.5483L291.119 39.3486L290.81 38.8702ZM297.038 34.8464L297.347 35.3247L297.891 34.9736L297.474 34.4791L297.038 34.8464ZM293.95 27.9533C293.95 28.82 293.599 29.6038 293.031 30.1725L293.836 30.9777C294.609 30.2041 295.089 29.1341 295.089 27.9533H293.95ZM290.81 24.8138C292.544 24.8138 293.95 26.2194 293.95 27.9533H295.089C295.089 25.5904 293.173 23.6748 290.81 23.6748V24.8138ZM287.671 27.9533C287.671 26.2194 289.076 24.8138 290.81 24.8138V23.6748C288.447 23.6748 286.532 25.5904 286.532 27.9533H287.671ZM288.589 30.1725C288.021 29.6038 287.671 28.82 287.671 27.9533H286.532C286.532 29.1341 287.011 30.2041 287.784 30.9777L288.589 30.1725ZM287.751 30.2078L284.147 34.4791L285.017 35.2137L288.622 30.9424L287.751 30.2078ZM284.273 35.3247L290.501 39.3486L291.119 38.3919L284.891 34.368L284.273 35.3247ZM291.119 39.3486L297.347 35.3247L296.729 34.368L290.501 38.3919L291.119 39.3486ZM297.474 34.4791L293.869 30.2078L292.998 30.9424L296.603 35.2137L297.474 34.4791Z" fill="black" mask="url(#path-166-inside-2_823_774)"/>
<path d="M280.771 45.3213C280.078 43.4148 278.011 39.0347 275.288 36.7659C272.565 34.497 274.878 33.9613 276.375 33.9771C277.161 34.1422 279.09 34.7017 280.52 35.6191C281.431 36.2032 281.378 35.3575 281.315 34.3324C281.253 33.3448 281.181 32.1906 281.951 31.9881C283.506 31.579 284.736 32.6573 286.929 34.5796L286.985 34.6288C288.133 35.635 288.426 34.6911 288.783 33.5394C289.12 32.4555 289.514 31.1876 290.731 31.1876C291.948 31.1876 292.342 32.4555 292.679 33.5394C293.036 34.6911 293.33 35.635 294.477 34.6288L294.534 34.5796C296.726 32.6573 297.957 31.579 299.511 31.9881C300.281 32.1906 300.209 33.3448 300.147 34.3324C300.084 35.3575 300.031 36.2032 300.942 35.6191C302.372 34.7017 304.301 34.1422 305.087 33.9771C306.584 33.9613 308.897 34.497 306.174 36.7659C303.452 39.0347 301.384 43.4148 300.691 45.3213H280.771Z" fill="#333333" stroke="black" stroke-width="0.569503"/>
<path d="M384.204 39.0898C384.204 41.495 382.665 44.5366 380.121 46.9889C377.584 49.434 374.092 51.2483 370.251 51.2483C366.41 51.2483 362.918 49.434 360.381 46.9889C357.837 44.5366 356.298 41.495 356.298 39.0898C356.298 36.7105 357.809 34.5162 360.336 32.9027C362.861 31.2912 366.365 30.2852 370.251 30.2852C374.136 30.2852 377.641 31.2912 380.165 32.9027C382.692 34.5162 384.204 36.7105 384.204 39.0898Z" fill="#333333" stroke="black" stroke-width="0.569503"/>
<path d="M369.163 25.7578H369.448V25.4731V22.0486H370.867V25.4731V25.7578H371.152H374.576V27.1768H371.152H370.867V27.4616V30.8861H369.448V27.4616V27.1768H369.163H365.739V25.7578H369.163Z" fill="#333333" stroke="black" stroke-width="0.569503"/>
<rect x="358.408" y="47.1716" width="23.5001" height="0.958768" rx="0.479384" fill="#333333" stroke="black" stroke-width="0.569503"/>
<path d="M359.449 71.2575V70.1119C362.158 66.9921 363.798 62.9184 363.798 58.4623C363.798 54.824 362.705 51.4403 360.829 48.6226H379.486C377.611 51.4403 376.517 54.824 376.517 58.4623C376.517 62.9184 378.157 66.9921 380.866 70.1119V71.2575H359.449Z" fill="#333333" stroke="black" stroke-width="0.569503"/>
<rect x="358.408" y="48.6226" width="23.5001" height="2.62564" rx="1.31282" fill="#333333" stroke="black" stroke-width="0.569503"/>
<rect x="356.298" y="71.827" width="27.7192" height="3.69024" fill="#333333" stroke="black" stroke-width="0.569503"/>
<rect x="352.587" y="76.0868" width="35.1406" height="3.90308" fill="#333333" stroke="black" stroke-width="0.569503"/>
<rect x="350.222" y="80.5593" width="39.8715" height="3.90308" fill="#333333" stroke="black" stroke-width="0.569503"/>
<circle cx="370.24" cy="26.4298" r="1.91737" fill="#333333" stroke="black" stroke-width="0.569503"/>
<path d="M526.018 23.7989C524.092 23.7989 524.533 27.7254 524.994 29.6886C524.474 31.1702 522.747 31.8257 521.743 32.5859C520.74 33.3461 521.622 34.4712 519.828 35.353C518.034 36.2349 516.118 37.8465 512.682 40.5833C509.245 43.32 507.178 44.2931 504.988 44.5667C503.237 44.7857 503.326 46.1176 503.59 46.7561L508.82 52.5946H511.161C511.313 51.7431 512.347 50.1619 514.719 49.8274C517.091 49.4929 522.504 50.7396 525.818 49.0368C528.47 47.6745 530.227 44.9215 530.775 43.7153L529.909 46.2461C527.719 52.2665 518.449 55.368 514.088 56.1661C512.514 59.4158 516.593 65.9999 518.83 68.8858V69.9079H541.946V68.9701C545.183 65.7333 547.025 58.8444 547.542 55.8046C547.659 58.8094 545.566 64.8723 544.505 67.5281L551.724 69.9412C556.021 63.382 557.946 52.3786 552.272 41.3179C547.72 32.4457 538.474 29.6695 534.42 29.3904L534.212 30.5592C531.017 25.0281 527.418 23.7477 526.018 23.7989Z" fill="#333333" stroke="black" stroke-width="0.569503"/>
<rect x="516.101" y="70.0782" width="27.7192" height="3.69024" fill="#333333" stroke="black" stroke-width="0.569503"/>
<rect x="512.39" y="74.3379" width="35.1406" height="3.90308" fill="#333333" stroke="black" stroke-width="0.569503"/>
<rect x="510.024" y="78.8105" width="39.8715" height="3.90308" fill="#333333" stroke="black" stroke-width="0.569503"/>
<circle cx="449.897" cy="25.802" r="3.95403" fill="#333333" stroke="black" stroke-width="0.569503"/>
<rect x="446.374" y="29.093" width="6.93057" height="0.492704" rx="0.246352" fill="#333333" stroke="black" stroke-width="0.492704"/>
<path d="M439.131 71.3233V70.1777C441.84 67.0579 443.48 62.9841 443.48 58.5281C443.48 54.8898 442.386 51.5061 440.511 48.6884H459.168C457.292 51.5061 456.199 54.8898 456.199 58.5281C456.199 62.9841 457.839 67.0579 460.548 70.1777V71.3233H439.131Z" fill="#333333" stroke="black" stroke-width="0.569503"/>
<path fill-rule="evenodd" clip-rule="evenodd" d="M449.839 29.3394H447.73L438.909 42.0211C438.138 43.3403 437.628 46.4638 441.758 48.4037H449.839H457.921C462.051 46.4638 461.541 43.3403 460.77 42.0211L451.949 29.3394H449.839Z" fill="#333333"/>
<path d="M447.73 29.3394V29.0546H447.581L447.496 29.1768L447.73 29.3394ZM438.909 42.0211L438.675 41.8585L438.669 41.8677L438.663 41.8773L438.909 42.0211ZM441.758 48.4037L441.637 48.6615L441.694 48.6885H441.758V48.4037ZM457.921 48.4037V48.6885H457.984L458.042 48.6615L457.921 48.4037ZM460.77 42.0211L461.015 41.8773L461.01 41.8677L461.003 41.8585L460.77 42.0211ZM451.949 29.3394L452.183 29.1768L452.098 29.0546H451.949V29.3394ZM447.73 29.6241H449.839V29.0546H447.73V29.6241ZM439.143 42.1837L447.964 29.502L447.496 29.1768L438.675 41.8585L439.143 42.1837ZM441.879 48.146C439.876 47.2051 439.04 46.0008 438.772 44.9116C438.5 43.8084 438.799 42.7733 439.155 42.1648L438.663 41.8773C438.248 42.5881 437.906 43.7744 438.219 45.0477C438.536 46.3351 439.51 47.6624 441.637 48.6615L441.879 48.146ZM449.839 48.119H441.758V48.6885H449.839V48.119ZM449.839 48.6885H457.921V48.119H449.839V48.6885ZM458.042 48.6615C460.169 47.6624 461.143 46.3351 461.46 45.0477C461.773 43.7744 461.431 42.5881 461.015 41.8773L460.524 42.1648C460.88 42.7733 461.178 43.8084 460.907 44.9116C460.639 46.0008 459.803 47.2051 457.8 48.146L458.042 48.6615ZM461.003 41.8585L452.183 29.1768L451.715 29.502L460.536 42.1837L461.003 41.8585ZM451.949 29.0546H449.839V29.6241H451.949V29.0546Z" fill="black"/>
<rect x="438.089" y="48.6884" width="23.5001" height="2.62564" rx="1.31282" fill="#333333" stroke="black" stroke-width="0.569503"/>
<rect x="435.98" y="71.8928" width="27.7192" height="3.69024" fill="#333333" stroke="black" stroke-width="0.569503"/>
<rect x="432.269" y="76.1525" width="35.1406" height="3.90308" fill="#333333" stroke="black" stroke-width="0.569503"/>
<rect x="429.904" y="80.6251" width="39.8715" height="3.90308" fill="#333333" stroke="black" stroke-width="0.569503"/>
<rect x="593.868" y="39.9068" width="30.865" height="2.62564" rx="1.31282" fill="#333333" stroke="black" stroke-width="0.569503"/>
<rect x="595.441" y="63.1112" width="27.7192" height="3.69024" fill="#333333" stroke="black" stroke-width="0.569503"/>
<rect x="591.73" y="67.3709" width="35.1406" height="3.90308" fill="#333333" stroke="black" stroke-width="0.569503"/>
<rect x="589.365" y="71.8434" width="39.8715" height="3.90308" fill="#333333" stroke="black" stroke-width="0.569503"/>
<path d="M598.066 42.8172C598.426 42.9684 599.146 43.3844 599.146 43.8381C599.146 44.2919 597.418 57.1105 596.554 63.4631C596.41 63.8791 595.992 64.745 595.473 64.8811C594.955 65.0172 604.475 64.9378 609.3 64.8811C614.125 64.9378 623.646 65.0172 623.127 64.8811C622.609 64.745 622.191 63.8791 622.047 63.4631C621.183 57.1105 619.454 44.2919 619.454 43.8381C619.454 43.3844 620.175 42.9684 620.535 42.8172H609.3H598.066Z" fill="#333333" stroke="black" stroke-width="0.569503"/>
<path d="M624.707 30.0601L623.987 40.0476L619.941 39.7256H594.834L593.406 30.1239H600.673L601.062 37.4117H605.776V30.1239H612.696V37.4117H619.941L619.874 30.1378L624.707 30.0601Z" fill="#3D3D3D" stroke="black" stroke-width="0.569503"/>
<path d="M623.262 35.8205L623.607 30.1375H624.656L624.281 35.8205H624.289L624.182 37.3299L624.132 38.0907H624.128L623.987 40.0731H594.603L593.361 30.1617H598.849L599.294 35.8205H602.518L602.038 30.1617H609.583V35.8205H614.213V30.1617H620.969V35.8205H623.262Z" fill="#333333" stroke="black" stroke-width="0.569503"/>
<path d="M59.7255 514.746C59.7255 518.742 56.0913 522.035 51.5395 522.035C46.9877 522.035 43.3536 518.742 43.3536 514.746C43.3536 510.75 46.9877 507.458 51.5395 507.458C56.0913 507.458 59.7255 510.75 59.7255 514.746Z" fill="white" stroke="black" stroke-width="0.569503"/>
<path d="M40.8313 542.044V540.898C43.54 537.778 45.1798 533.705 45.1798 529.249C45.1798 525.61 44.0865 522.227 42.2106 519.409H60.8684C58.9925 522.227 57.8993 525.61 57.8993 529.249C57.8993 533.705 59.5391 537.778 62.2478 540.898V542.044H40.8313Z" fill="white" stroke="black" stroke-width="0.569503"/>
<rect x="39.7894" y="519.409" width="23.5001" height="2.62564" rx="1.31282" fill="white" stroke="black" stroke-width="0.569503"/>
<rect x="37.6799" y="542.613" width="27.7192" height="3.69024" fill="white" stroke="black" stroke-width="0.569503"/>
<rect x="33.9692" y="546.873" width="35.1406" height="3.90308" fill="white" stroke="black" stroke-width="0.569503"/>
<rect x="31.6037" y="551.346" width="39.8715" height="3.90308" fill="white" stroke="black" stroke-width="0.569503"/>
<path d="M139.456 514.746C139.456 518.742 135.822 522.035 131.271 522.035C126.719 522.035 123.085 518.742 123.085 514.746C123.085 510.75 126.719 507.458 131.271 507.458C135.822 507.458 139.456 510.75 139.456 514.746Z" fill="white" stroke="black" stroke-width="0.569503"/>
<path d="M120.562 542.044V540.898C123.271 537.778 124.911 533.705 124.911 529.249C124.911 525.61 123.818 522.227 121.942 519.409H140.599C138.724 522.227 137.63 525.61 137.63 529.249C137.63 533.705 139.27 537.778 141.979 540.898V542.044H120.562Z" fill="white" stroke="black" stroke-width="0.569503"/>
<rect x="119.521" y="519.409" width="23.5001" height="2.62564" rx="1.31282" fill="white" stroke="black" stroke-width="0.569503"/>
<rect x="117.411" y="542.613" width="27.7192" height="3.69024" fill="white" stroke="black" stroke-width="0.569503"/>
<rect x="113.7" y="546.873" width="35.1406" height="3.90308" fill="white" stroke="black" stroke-width="0.569503"/>
<rect x="111.335" y="551.346" width="39.8715" height="3.90308" fill="white" stroke="black" stroke-width="0.569503"/>
<path d="M219.186 514.746C219.186 518.742 215.552 522.035 211 522.035C206.449 522.035 202.815 518.742 202.815 514.746C202.815 510.75 206.449 507.458 211 507.458C215.552 507.458 219.186 510.75 219.186 514.746Z" fill="white" stroke="black" stroke-width="0.569503"/>
<path d="M200.292 542.044V540.898C203.001 537.778 204.641 533.705 204.641 529.249C204.641 525.61 203.548 522.227 201.672 519.409H220.329C218.454 522.227 217.36 525.61 217.36 529.249C217.36 533.705 219 537.778 221.709 540.898V542.044H200.292Z" fill="white" stroke="black" stroke-width="0.569503"/>
<rect x="199.251" y="519.409" width="23.5001" height="2.62564" rx="1.31282" fill="white" stroke="black" stroke-width="0.569503"/>
<rect x="197.141" y="542.613" width="27.7192" height="3.69024" fill="white" stroke="black" stroke-width="0.569503"/>
<rect x="193.43" y="546.873" width="35.1406" height="3.90308" fill="white" stroke="black" stroke-width="0.569503"/>
<rect x="191.065" y="551.346" width="39.8715" height="3.90308" fill="white" stroke="black" stroke-width="0.569503"/>
<path d="M298.917 514.746C298.917 518.742 295.283 522.035 290.731 522.035C286.179 522.035 282.545 518.742 282.545 514.746C282.545 510.75 286.179 507.458 290.731 507.458C295.283 507.458 298.917 510.75 298.917 514.746Z" fill="white" stroke="black" stroke-width="0.569503"/>
<path d="M280.023 542.044V540.898C282.731 537.778 284.371 533.705 284.371 529.249C284.371 525.61 283.278 522.227 281.402 519.409H300.06C298.184 522.227 297.091 525.61 297.091 529.249C297.091 533.705 298.731 537.778 301.439 540.898V542.044H280.023Z" fill="white" stroke="black" stroke-width="0.569503"/>
<rect x="278.981" y="519.409" width="23.5001" height="2.62564" rx="1.31282" fill="white" stroke="black" stroke-width="0.569503"/>
<rect x="276.871" y="542.613" width="27.7192" height="3.69024" fill="white" stroke="black" stroke-width="0.569503"/>
<rect x="273.161" y="546.873" width="35.1406" height="3.90308" fill="white" stroke="black" stroke-width="0.569503"/>
<rect x="270.795" y="551.346" width="39.8715" height="3.90308" fill="white" stroke="black" stroke-width="0.569503"/>
<path d="M378.648 514.746C378.648 518.742 375.014 522.035 370.462 522.035C365.911 522.035 362.276 518.742 362.276 514.746C362.276 510.75 365.911 507.458 370.462 507.458C375.014 507.458 378.648 510.75 378.648 514.746Z" fill="white" stroke="black" stroke-width="0.569503"/>
<path d="M359.754 542.044V540.898C362.463 537.778 364.103 533.705 364.103 529.249C364.103 525.61 363.01 522.227 361.134 519.409H379.791C377.915 522.227 376.822 525.61 376.822 529.249C376.822 533.705 378.462 537.778 381.171 540.898V542.044H359.754Z" fill="white" stroke="black" stroke-width="0.569503"/>
<rect x="358.712" y="519.409" width="23.5001" height="2.62564" rx="1.31282" fill="white" stroke="black" stroke-width="0.569503"/>
<rect x="356.603" y="542.613" width="27.7192" height="3.69024" fill="white" stroke="black" stroke-width="0.569503"/>
<rect x="352.892" y="546.873" width="35.1406" height="3.90308" fill="white" stroke="black" stroke-width="0.569503"/>
<rect x="350.527" y="551.346" width="39.8715" height="3.90308" fill="white" stroke="black" stroke-width="0.569503"/>
<path d="M458.378 514.746C458.378 518.742 454.744 522.035 450.192 522.035C445.64 522.035 442.006 518.742 442.006 514.746C442.006 510.75 445.64 507.458 450.192 507.458C454.744 507.458 458.378 510.75 458.378 514.746Z" fill="white" stroke="black" stroke-width="0.569503"/>
<path d="M439.484 542.044V540.898C442.192 537.778 443.832 533.705 443.832 529.249C443.832 525.61 442.739 522.227 440.863 519.409H459.521C457.645 522.227 456.552 525.61 456.552 529.249C456.552 533.705 458.192 537.778 460.9 540.898V542.044H439.484Z" fill="white" stroke="black" stroke-width="0.569503"/>
<rect x="438.442" y="519.409" width="23.5001" height="2.62564" rx="1.31282" fill="white" stroke="black" stroke-width="0.569503"/>
<rect x="436.332" y="542.613" width="27.7192" height="3.69024" fill="white" stroke="black" stroke-width="0.569503"/>
<rect x="432.622" y="546.873" width="35.1406" height="3.90308" fill="white" stroke="black" stroke-width="0.569503"/>
<rect x="430.256" y="551.346" width="39.8715" height="3.90308" fill="white" stroke="black" stroke-width="0.569503"/>
<path d="M538.109 514.746C538.109 518.742 534.475 522.035 529.923 522.035C525.372 522.035 521.737 518.742 521.737 514.746C521.737 510.75 525.372 507.458 529.923 507.458C534.475 507.458 538.109 510.75 538.109 514.746Z" fill="white" stroke="black" stroke-width="0.569503"/>
<path d="M519.215 542.044V540.898C521.924 537.778 523.564 533.705 523.564 529.249C523.564 525.61 522.47 522.227 520.595 519.409H539.252C537.376 522.227 536.283 525.61 536.283 529.249C536.283 533.705 537.923 537.778 540.632 540.898V542.044H519.215Z" fill="white" stroke="black" stroke-width="0.569503"/>
<rect x="518.173" y="519.409" width="23.5001" height="2.62564" rx="1.31282" fill="white" stroke="black" stroke-width="0.569503"/>
<rect x="516.064" y="542.613" width="27.7192" height="3.69024" fill="white" stroke="black" stroke-width="0.569503"/>
<rect x="512.353" y="546.873" width="35.1406" height="3.90308" fill="white" stroke="black" stroke-width="0.569503"/>
<rect x="509.988" y="551.346" width="39.8715" height="3.90308" fill="white" stroke="black" stroke-width="0.569503"/>
<path d="M617.839 514.746C617.839 518.742 614.205 522.035 609.653 522.035C605.101 522.035 601.467 518.742 601.467 514.746C601.467 510.75 605.101 507.458 609.653 507.458C614.205 507.458 617.839 510.75 617.839 514.746Z" fill="white" stroke="black" stroke-width="0.569503"/>
<path d="M598.945 542.044V540.898C601.653 537.778 603.293 533.705 603.293 529.249C603.293 525.61 602.2 522.227 600.324 519.409H618.982C617.106 522.227 616.013 525.61 616.013 529.249C616.013 533.705 617.652 537.778 620.361 540.898V542.044H598.945Z" fill="white" stroke="black" stroke-width="0.569503"/>
<rect x="597.903" y="519.409" width="23.5001" height="2.62564" rx="1.31282" fill="white" stroke="black" stroke-width="0.569503"/>
<rect x="595.793" y="542.613" width="27.7192" height="3.69024" fill="white" stroke="black" stroke-width="0.569503"/>
<rect x="592.083" y="546.873" width="35.1406" height="3.90308" fill="white" stroke="black" stroke-width="0.569503"/>
<rect x="589.717" y="551.346" width="39.8715" height="3.90308" fill="white" stroke="black" stroke-width="0.569503"/>
<path d="M59.7255 116.521C59.7255 120.517 56.0913 123.81 51.5395 123.81C46.9877 123.81 43.3536 120.517 43.3536 116.521C43.3536 112.525 46.9877 109.233 51.5395 109.233C56.0913 109.233 59.7255 112.525 59.7255 116.521Z" fill="#333333" stroke="black" stroke-width="0.569503"/>
<path d="M40.8313 143.819V142.673C43.54 139.554 45.1798 135.48 45.1798 131.024C45.1798 127.385 44.0865 124.002 42.2106 121.184H60.8684C58.9925 124.002 57.8993 127.385 57.8993 131.024C57.8993 135.48 59.5391 139.554 62.2478 142.673V143.819H40.8313Z" fill="#333333" stroke="black" stroke-width="0.569503"/>
<rect x="39.7894" y="121.184" width="23.5001" height="2.62564" rx="1.31282" fill="#333333" stroke="black" stroke-width="0.569503"/>
<rect x="37.6799" y="144.388" width="27.7192" height="3.69024" fill="#333333" stroke="black" stroke-width="0.569503"/>
<rect x="33.9692" y="148.648" width="35.1406" height="3.90308" fill="#333333" stroke="black" stroke-width="0.569503"/>
<rect x="31.6037" y="153.121" width="39.8715" height="3.90308" fill="#333333" stroke="black" stroke-width="0.569503"/>
<path d="M139.456 116.521C139.456 120.517 135.822 123.81 131.271 123.81C126.719 123.81 123.085 120.517 123.085 116.521C123.085 112.525 126.719 109.233 131.271 109.233C135.822 109.233 139.456 112.525 139.456 116.521Z" fill="#333333" stroke="black" stroke-width="0.569503"/>
<path d="M120.562 143.819V142.673C123.271 139.554 124.911 135.48 124.911 131.024C124.911 127.385 123.818 124.002 121.942 121.184H140.599C138.724 124.002 137.63 127.385 137.63 131.024C137.63 135.48 139.27 139.554 141.979 142.673V143.819H120.562Z" fill="#333333" stroke="black" stroke-width="0.569503"/>
<rect x="119.521" y="121.184" width="23.5001" height="2.62564" rx="1.31282" fill="#333333" stroke="black" stroke-width="0.569503"/>
<rect x="117.411" y="144.389" width="27.7192" height="3.69024" fill="#333333" stroke="black" stroke-width="0.569503"/>
<rect x="113.7" y="148.648" width="35.1406" height="3.90308" fill="#333333" stroke="black" stroke-width="0.569503"/>
<rect x="111.335" y="153.121" width="39.8715" height="3.90308" fill="#333333" stroke="black" stroke-width="0.569503"/>
<path d="M219.186 116.521C219.186 120.517 215.552 123.81 211 123.81C206.449 123.81 202.815 120.517 202.815 116.521C202.815 112.525 206.449 109.233 211 109.233C215.552 109.233 219.186 112.525 219.186 116.521Z" fill="#333333" stroke="black" stroke-width="0.569503"/>
<path d="M200.292 143.819V142.673C203.001 139.554 204.641 135.48 204.641 131.024C204.641 127.385 203.548 124.002 201.672 121.184H220.329C218.454 124.002 217.36 127.385 217.36 131.024C217.36 135.48 219 139.554 221.709 142.673V143.819H200.292Z" fill="#333333" stroke="black" stroke-width="0.569503"/>
<rect x="199.251" y="121.184" width="23.5001" height="2.62564" rx="1.31282" fill="#333333" stroke="black" stroke-width="0.569503"/>
<rect x="197.141" y="144.388" width="27.7192" height="3.69024" fill="#333333" stroke="black" stroke-width="0.569503"/>
<rect x="193.43" y="148.648" width="35.1406" height="3.90308" fill="#333333" stroke="black" stroke-width="0.569503"/>
<rect x="191.065" y="153.121" width="39.8715" height="3.90308" fill="#333333" stroke="black" stroke-width="0.569503"/>
<path d="M298.75 116.674C298.75 120.67 295.116 123.963 290.564 123.963C286.012 123.963 282.378 120.67 282.378 116.674C282.378 112.678 286.012 109.386 290.564 109.386C295.116 109.386 298.75 112.678 298.75 116.674Z" fill="#333333" stroke="black" stroke-width="0.569503"/>
<path d="M279.856 143.972V142.826C282.564 139.706 284.204 135.633 284.204 131.177C284.204 127.538 283.111 124.155 281.235 121.337H299.893C298.017 124.155 296.924 127.538 296.924 131.177C296.924 135.633 298.564 139.706 301.272 142.826V143.972H279.856Z" fill="#333333" stroke="black" stroke-width="0.569503"/>
<rect x="278.814" y="121.337" width="23.5001" height="2.62564" rx="1.31282" fill="#333333" stroke="black" stroke-width="0.569503"/>
<rect x="276.704" y="144.541" width="27.7192" height="3.69024" fill="#333333" stroke="black" stroke-width="0.569503"/>
<rect x="272.994" y="148.801" width="35.1406" height="3.90308" fill="#333333" stroke="black" stroke-width="0.569503"/>
<rect x="270.628" y="153.274" width="39.8715" height="3.90308" fill="#333333" stroke="black" stroke-width="0.569503"/>
<path d="M378.648 116.521C378.648 120.517 375.014 123.81 370.462 123.81C365.911 123.81 362.276 120.517 362.276 116.521C362.276 112.525 365.911 109.233 370.462 109.233C375.014 109.233 378.648 112.525 378.648 116.521Z" fill="#333333" stroke="black" stroke-width="0.569503"/>
<path d="M359.754 143.819V142.673C362.463 139.554 364.103 135.48 364.103 131.024C364.103 127.385 363.01 124.002 361.134 121.184H379.791C377.915 124.002 376.822 127.385 376.822 131.024C376.822 135.48 378.462 139.554 381.171 142.673V143.819H359.754Z" fill="#333333" stroke="black" stroke-width="0.569503"/>
<rect x="358.712" y="121.184" width="23.5001" height="2.62564" rx="1.31282" fill="#333333" stroke="black" stroke-width="0.569503"/>
<rect x="356.603" y="144.389" width="27.7192" height="3.69024" fill="#333333" stroke="black" stroke-width="0.569503"/>
<rect x="352.892" y="148.648" width="35.1406" height="3.90308" fill="#333333" stroke="black" stroke-width="0.569503"/>
<rect x="350.527" y="153.121" width="39.8715" height="3.90308" fill="#333333" stroke="black" stroke-width="0.569503"/>
<path d="M458.378 116.521C458.378 120.517 454.744 123.81 450.192 123.81C445.64 123.81 442.006 120.517 442.006 116.521C442.006 112.525 445.64 109.233 450.192 109.233C454.744 109.233 458.378 112.525 458.378 116.521Z" fill="#333333" stroke="black" stroke-width="0.569503"/>
<path d="M439.484 143.819V142.673C442.192 139.554 443.832 135.48 443.832 131.024C443.832 127.385 442.739 124.002 440.863 121.184H459.521C457.645 124.002 456.552 127.385 456.552 131.024C456.552 135.48 458.192 139.554 460.9 142.673V143.819H439.484Z" fill="#333333" stroke="black" stroke-width="0.569503"/>
<rect x="438.442" y="121.184" width="23.5001" height="2.62564" rx="1.31282" fill="#333333" stroke="black" stroke-width="0.569503"/>
<rect x="436.332" y="144.389" width="27.7192" height="3.69024" fill="#333333" stroke="black" stroke-width="0.569503"/>
<rect x="432.622" y="148.648" width="35.1406" height="3.90308" fill="#333333" stroke="black" stroke-width="0.569503"/>
<rect x="430.256" y="153.121" width="39.8715" height="3.90308" fill="#333333" stroke="black" stroke-width="0.569503"/>
<path d="M538.109 116.521C538.109 120.517 534.475 123.81 529.923 123.81C525.372 123.81 521.737 120.517 521.737 116.521C521.737 112.525 525.372 109.233 529.923 109.233C534.475 109.233 538.109 112.525 538.109 116.521Z" fill="#333333" stroke="black" stroke-width="0.569503"/>
<path d="M519.215 143.819V142.673C521.924 139.554 523.564 135.48 523.564 131.024C523.564 127.385 522.47 124.002 520.595 121.184H539.252C537.376 124.002 536.283 127.385 536.283 131.024C536.283 135.48 537.923 139.554 540.632 142.673V143.819H519.215Z" fill="#333333" stroke="black" stroke-width="0.569503"/>
<rect x="518.173" y="121.184" width="23.5001" height="2.62564" rx="1.31282" fill="#333333" stroke="black" stroke-width="0.569503"/>
<rect x="516.064" y="144.389" width="27.7192" height="3.69024" fill="#333333" stroke="black" stroke-width="0.569503"/>
<rect x="512.353" y="148.648" width="35.1406" height="3.90308" fill="#333333" stroke="black" stroke-width="0.569503"/>
<rect x="509.988" y="153.121" width="39.8715" height="3.90308" fill="#333333" stroke="black" stroke-width="0.569503"/>
<path d="M617.839 116.521C617.839 120.517 614.205 123.81 609.653 123.81C605.101 123.81 601.467 120.517 601.467 116.521C601.467 112.525 605.101 109.233 609.653 109.233C614.205 109.233 617.839 112.525 617.839 116.521Z" fill="#333333" stroke="black" stroke-width="0.569503"/>
<path d="M598.945 143.819V142.673C601.653 139.554 603.293 135.48 603.293 131.024C603.293 127.385 602.2 124.002 600.324 121.184H618.982C617.106 124.002 616.013 127.385 616.013 131.024C616.013 135.48 617.652 139.554 620.361 142.673V143.819H598.945Z" fill="#333333" stroke="black" stroke-width="0.569503"/>
<rect x="597.903" y="121.184" width="23.5001" height="2.62564" rx="1.31282" fill="#333333" stroke="black" stroke-width="0.569503"/>
<rect x="595.793" y="144.389" width="27.7192" height="3.69024" fill="#333333" stroke="black" stroke-width="0.569503"/>
<rect x="592.083" y="148.648" width="35.1406" height="3.90308" fill="#333333" stroke="black" stroke-width="0.569503"/>
<rect x="589.717" y="153.121" width="39.8715" height="3.90308" fill="#333333" stroke="black" stroke-width="0.569503"/>
</svg>
