<svg width="1440" height="900" viewBox="0 0 1440 900" fill="none" xmlns="http://www.w3.org/2000/svg">
<path d="M719.719 -79.4375H539.719V100.562H719.719V-79.4375ZM0 100.478V280.478H180V100.478H0ZM360 -79.4375H180V100.562H360V-79.4375ZM540 640.281V820.281H720V640.281H540ZM0 460.337V640.337H180V460.337H0ZM1079.58 -79.4375H899.578V100.562H1079.58V-79.4375ZM1439.58 -79.4375H1259.58V100.562H1439.58V-79.4375ZM360 640.281H180V820.281H360V640.281ZM1439.44 1180V1000H1259.44V1180H1439.44ZM1439.44 820V640H1259.44V820H1439.44ZM1079.58 1360H1259.58V1180H1079.58V1360ZM1439.58 460.337V280.337H1259.58V460.337H1439.58ZM360 1360H540V1180H360V1360ZM0 1360H180V1180H0V1360ZM719.719 1360H899.719V1180H719.719V1360ZM0 820.197V1000.2H180V820.197H0ZM899.663 280.422V100.422H719.663V280.422H899.663ZM719.663 640.422H899.663V460.422H719.663V640.422ZM539.663 1000.42V1180.42H719.663V1000.42H539.663ZM899.663 820.422H1079.66V640.422H899.663V820.422ZM899.663 460.562H1079.66V280.562H899.663V460.562ZM899.663 1000.37V1180.37H1079.66V1000.37H899.663ZM180 1000.14V1180.14H360V1000.14H180ZM540 280.422V100.422H360V280.422H540ZM1079.78 1000.14H1259.78V820.141H1079.78V1000.14ZM719.775 460.337V280.337H539.775V460.337H719.775ZM1079.78 100.478V280.478H1259.78V100.478H1079.78ZM719.775 820.197V1000.2H899.775V820.197H719.775ZM539.775 460.337H360V640.337H540L539.775 460.337ZM1079.55 640.337H1259.55V460.337H1079.55V640.337ZM360 280.422H180V460.422H360V280.422ZM360 820.197V1000.2H540V820.197H360Z" fill="black"/>
</svg>
