<svg width="27" height="26" viewBox="0 0 27 26" fill="none" xmlns="http://www.w3.org/2000/svg">
<g clip-path="url(#clip0_823_380)">
<path d="M13.5 0C20.6805 0 26.5 5.81953 26.5 13C26.5 20.1805 20.6805 26 13.5 26C6.31953 26 0.5 20.1805 0.5 13C0.5 5.81953 6.31953 0 13.5 0Z" fill="#0052FF"/>
<path d="M13.5025 17.5703C10.9787 17.5703 8.93223 15.5264 8.93223 13C8.93223 10.4736 10.9787 8.42969 13.5025 8.42969C15.7648 8.42969 17.6438 10.0801 18.0043 12.2383H22.6076C22.2191 7.54609 18.2912 3.85938 13.5 3.85938C8.45234 3.85938 4.35938 7.95234 4.35938 13C4.35938 18.0477 8.45234 22.1406 13.5 22.1406C18.2912 22.1406 22.2191 18.4539 22.6076 13.7617H18.0018C17.6387 15.9199 15.7648 17.5703 13.5025 17.5703Z" fill="white"/>
</g>
<defs>
<clipPath id="clip0_823_380">
<rect width="26" height="26" fill="white" transform="translate(0.5)"/>
</clipPath>
</defs>
</svg>
