<svg width="14" height="15" viewBox="0 0 14 15" fill="none" xmlns="http://www.w3.org/2000/svg">
<path d="M8.88049 2.2216C9.03598 2.37713 9.12333 2.58806 9.12333 2.80798C9.12333 3.02791 9.03598 3.23883 8.88049 3.39437L4.77495 7.49991L8.88049 11.6054C9.03157 11.7619 9.11517 11.9714 9.11328 12.1888C9.11139 12.4063 9.02417 12.6143 8.87039 12.7681C8.71661 12.9219 8.50859 13.0091 8.29112 13.011C8.07365 13.0129 7.86414 12.9293 7.70772 12.7782L3.01579 8.08629C2.8603 7.93076 2.77295 7.71983 2.77295 7.49991C2.77295 7.27998 2.8603 7.06905 3.01579 6.91352L7.70772 2.2216C7.86325 2.06611 8.07418 1.97876 8.2941 1.97876C8.51403 1.97876 8.72496 2.06611 8.88049 2.2216Z" fill="white"/>
</svg>
