<svg width="175" height="32" viewBox="0 0 175 32" fill="none" xmlns="http://www.w3.org/2000/svg">
<path d="M7.146 22.252C5.25 22.252 3.684 21.622 2.448 20.362C1.212 19.102 0.594 17.548 0.594 15.7C0.594 13.84 1.212 12.286 2.448 11.038C3.684 9.778 5.25 9.148 7.146 9.148C8.286 9.148 9.336 9.418 10.296 9.958C11.268 10.486 12.024 11.206 12.564 12.118L10.422 13.36C10.11 12.796 9.666 12.358 9.09 12.046C8.514 11.722 7.866 11.56 7.146 11.56C5.922 11.56 4.932 11.944 4.176 12.712C3.432 13.48 3.06 14.476 3.06 15.7C3.06 16.912 3.432 17.902 4.176 18.67C4.932 19.438 5.922 19.822 7.146 19.822C7.866 19.822 8.514 19.666 9.09 19.354C9.678 19.03 10.122 18.592 10.422 18.04L12.564 19.282C12.024 20.194 11.274 20.92 10.314 21.46C9.354 21.988 8.298 22.252 7.146 22.252ZM23.0539 9.4H25.5199V22H23.0539V16.78H18.3739V22H15.8899V9.4H18.3739V14.404H23.0539V9.4ZM32.1446 19.624H37.4546V22H29.6606V9.4H37.3646V11.776H32.1446V14.458H36.9146V16.798H32.1446V19.624ZM45.3075 22.252C44.0595 22.252 43.0095 21.976 42.1575 21.424C41.3055 20.86 40.7055 20.098 40.3575 19.138L42.4815 17.896C42.9735 19.18 43.9395 19.822 45.3795 19.822C46.0755 19.822 46.5855 19.696 46.9095 19.444C47.2335 19.192 47.3955 18.874 47.3955 18.49C47.3955 18.046 47.1975 17.704 46.8015 17.464C46.4055 17.212 45.6975 16.942 44.6775 16.654C44.1135 16.486 43.6335 16.318 43.2375 16.15C42.8535 15.982 42.4635 15.76 42.0675 15.484C41.6835 15.196 41.3895 14.836 41.1855 14.404C40.9815 13.972 40.8795 13.468 40.8795 12.892C40.8795 11.752 41.2815 10.846 42.0855 10.174C42.9015 9.49 43.8795 9.148 45.0195 9.148C46.0395 9.148 46.9335 9.4 47.7015 9.904C48.4815 10.396 49.0875 11.086 49.5195 11.974L47.4315 13.18C46.9275 12.1 46.1235 11.56 45.0195 11.56C44.5035 11.56 44.0955 11.68 43.7955 11.92C43.5075 12.148 43.3635 12.448 43.3635 12.82C43.3635 13.216 43.5255 13.54 43.8495 13.792C44.1855 14.032 44.8215 14.296 45.7575 14.584C46.1415 14.704 46.4295 14.8 46.6215 14.872C46.8255 14.932 47.0955 15.034 47.4315 15.178C47.7795 15.31 48.0435 15.436 48.2235 15.556C48.4155 15.676 48.6315 15.838 48.8715 16.042C49.1115 16.246 49.2915 16.456 49.4115 16.672C49.5435 16.888 49.6515 17.152 49.7355 17.464C49.8315 17.764 49.8795 18.094 49.8795 18.454C49.8795 19.618 49.4535 20.542 48.6015 21.226C47.7615 21.91 46.6635 22.252 45.3075 22.252ZM57.215 22.252C55.967 22.252 54.917 21.976 54.065 21.424C53.213 20.86 52.613 20.098 52.265 19.138L54.389 17.896C54.881 19.18 55.847 19.822 57.287 19.822C57.983 19.822 58.493 19.696 58.817 19.444C59.141 19.192 59.303 18.874 59.303 18.49C59.303 18.046 59.105 17.704 58.709 17.464C58.313 17.212 57.605 16.942 56.585 16.654C56.021 16.486 55.541 16.318 55.145 16.15C54.761 15.982 54.371 15.76 53.975 15.484C53.591 15.196 53.297 14.836 53.093 14.404C52.889 13.972 52.787 13.468 52.787 12.892C52.787 11.752 53.189 10.846 53.993 10.174C54.809 9.49 55.787 9.148 56.927 9.148C57.947 9.148 58.841 9.4 59.609 9.904C60.389 10.396 60.995 11.086 61.427 11.974L59.339 13.18C58.835 12.1 58.031 11.56 56.927 11.56C56.411 11.56 56.003 11.68 55.703 11.92C55.415 12.148 55.271 12.448 55.271 12.82C55.271 13.216 55.433 13.54 55.757 13.792C56.093 14.032 56.729 14.296 57.665 14.584C58.049 14.704 58.337 14.8 58.529 14.872C58.733 14.932 59.003 15.034 59.339 15.178C59.687 15.31 59.951 15.436 60.131 15.556C60.323 15.676 60.539 15.838 60.779 16.042C61.019 16.246 61.199 16.456 61.319 16.672C61.451 16.888 61.559 17.152 61.643 17.464C61.739 17.764 61.787 18.094 61.787 18.454C61.787 19.618 61.361 20.542 60.509 21.226C59.669 21.91 58.571 22.252 57.215 22.252Z" fill="white"/>
<path d="M88.7625 3.34747L81.4075 8.21997C81.4075 8.21997 81.6575 8.57497 81.8275 8.73747C82.1825 9.07747 82.4125 9.18997 82.4125 9.18997L82.2675 9.68997L80.435 10.7525C80.435 10.7525 80.37 11.5925 81.305 12.0775C82.08 12.48 82.8525 12.4825 82.8525 12.4825V13.69C82.8525 13.69 83.6225 15.19 85.1875 15.19C86.7525 15.19 87.5 13.4825 87.5 13.4825L87.52 12.44C87.52 12.44 88.225 12.37 88.8975 11.9775C89.4075 11.6775 89.5875 11.1875 89.5925 10.77C89.5975 10.415 89.565 10.345 89.565 10.345L87.435 9.23247C87.435 9.23247 88.3825 8.65747 88.8925 7.35747C89.8525 4.91997 88.7625 3.34747 88.7625 3.34747ZM84.83 19.13L79.5275 20.3925C79.5275 20.3925 79.3875 20.5875 79.39 20.7975C79.395 21.15 79.545 21.2325 79.545 21.2325L77.4275 23.8C77.4275 23.8 77.18 24.3075 77.1925 24.95C77.205 25.565 77.46 25.9425 77.495 25.925L76.8075 26.8425L76.37 27.03C76.37 27.03 76.1325 27.415 76.1625 27.885C76.2 28.465 76.575 29.0825 78.0375 29.76C79.55 30.4625 81.185 31.0925 84.9775 31.0925C88.77 31.0925 91.645 30.3425 92.8325 29.51C94.02 28.6775 94.115 27.9525 94.135 27.64C94.1503 27.4075 94.1028 27.1753 93.9975 26.9675C93.9875 26.95 93.965 26.915 93.965 26.915L93.0275 25.9025C93.0275 25.9025 93.2525 25.345 93.225 24.7525C93.19 24.005 92.8125 23.465 92.8125 23.465L90.6025 21.5475L90.6225 21.0475C90.6225 21.0475 90.66 20.8875 90.5875 20.62C90.525 20.39 90.475 20.2625 90.4225 20.1825C90.2675 19.945 90.0775 19.97 90.0775 19.97L84.83 19.13Z" fill="#474C50"/>
<path d="M81.4 8.22002C81.4 8.22002 80.2275 6.77252 80.7275 4.48002C81.2275 2.18752 83.2875 0.710023 85.6225 1.04252C87.9575 1.37502 88.895 3.58502 88.895 3.58502C88.895 3.58502 88.8275 6.34002 86.305 7.67502C83.7825 9.01002 81.4 8.22002 81.4 8.22002Z" fill="#4E4D4B"/>
<path d="M84.665 1.77251C85.2175 2.08751 84.9175 2.44001 84.0825 2.98001C83.3075 3.48251 82.375 4.96001 82.1225 5.33501C81.87 5.71001 81.705 5.75251 81.58 5.66751C81.455 5.58251 81.06 5.37501 81.4125 4.18751C81.765 3.00001 82.705 2.25001 83.1625 1.97751C83.6225 1.71001 84.2275 1.52251 84.665 1.77251Z" fill="#FFFFFE"/>
<path d="M82.4125 9.19C82.4125 9.19 83.59 9.975 84.86 9.99C86.6525 10.0075 87.435 9.2325 87.435 9.2325C87.435 9.2325 88.2825 9.145 88.8875 9.46C89.4175 9.735 89.565 10.35 89.565 10.35C89.565 10.35 89.005 11.8075 84.925 11.6975C80.8425 11.5875 80.435 10.755 80.435 10.755C80.435 10.755 80.3275 9.8975 81.055 9.4775C81.665 9.1225 82.4125 9.19 82.4125 9.19Z" fill="#4E4D4B"/>
<path d="M81.6575 9.62251C81.2675 9.58501 80.67 9.82501 80.7425 10.355C80.815 10.885 82.025 11.125 82.61 11.16C83.195 11.195 84.13 11.27 84.11 10.72C84.0925 10.17 82.6825 10.445 82.1325 10.1525C81.5825 9.86001 82.225 9.67751 81.6575 9.62251Z" fill="#AEAEAF"/>
<path d="M82.85 13.6925C82.85 13.6925 83.5975 14.0175 85.1525 14.0175C86.7075 14.0175 87.4975 13.485 87.4975 13.485C87.4975 13.485 87.495 15.245 88.2275 17.02C88.96 18.795 89.49 19.655 89.49 19.655C89.49 19.655 89.9675 19.6225 90.15 19.77C90.3325 19.9175 90.51 20.365 90.51 20.365C90.45 20.4475 89.1475 21.655 85.235 21.57C81.0625 21.48 79.5275 20.39 79.5275 20.39C79.5275 20.39 79.7725 19.9825 80.0525 19.89C80.39 19.7775 80.6075 19.8075 80.6075 19.8075C80.6075 19.8075 81.86 18.3 82.3725 16.8175C82.8825 15.335 82.85 13.6925 82.85 13.6925Z" fill="#4E4D4B"/>
<path d="M85.0625 20.4225C86.6 20.4225 87.9375 20.1125 88.505 19.9475C89.0725 19.7825 89.5025 19.505 89.9425 19.6525C90.19 19.735 90.285 19.9225 90.285 19.9225C90.285 19.9225 88.65 21.2975 85.045 21.1575C81.2025 21.01 79.7325 20.13 79.7325 20.13C79.7325 20.13 79.9825 19.7725 80.545 19.8075C80.695 19.8175 80.835 19.86 81.695 20.06C82.555 20.26 83.56 20.4225 85.0625 20.4225Z" fill="#B0B0AF"/>
<path d="M79.545 21.23C79.545 21.23 82.0775 22.2325 85.0625 22.2725C89.055 22.325 90.625 21.0475 90.625 21.0475C90.625 21.0475 91.5625 21.9075 91.945 22.31C92.3275 22.7125 92.8125 23.465 92.8125 23.465C92.8125 23.465 91.14 26.2275 85.0275 26.1725C78.9125 26.1175 77.4275 23.8 77.4275 23.8C77.4275 23.8 77.75 22.955 78.4175 22.255C78.8275 21.8225 79.545 21.23 79.545 21.23Z" fill="#4E4D4B"/>
<path d="M79.4975 22.3625C79.0425 22.24 78.1425 23.15 78.2525 23.7175C78.3075 24.0075 78.47 24.33 79.35 24.65C80.155 24.9425 81.4 24.9275 81.4 24.4475C81.4 23.825 80.32 23.8825 80.045 23.33C79.8275 22.895 79.9725 22.4925 79.4975 22.3625Z" fill="#B0B0AF"/>
<path d="M77.495 25.9225C77.495 25.9225 77.135 26.1675 76.855 26.4425C76.5025 26.79 76.37 27.0275 76.37 27.0275C76.37 27.0275 77.1775 29.9325 84.9375 29.995C92.535 30.0575 93.965 26.9125 93.965 26.9125C93.965 26.9125 93.7175 26.555 93.4575 26.295C93.1975 26.035 93.025 25.9025 93.025 25.9025C93.025 25.9025 90.8225 28.39 84.885 28.325C79.225 28.2675 77.495 25.9225 77.495 25.9225Z" fill="#4E4D4B"/>
<path d="M77.105 26.7225C76.8975 26.955 76.905 27.4375 77.5175 27.84C78.1725 28.27 79.2275 28.8825 80.74 29.165C82.28 29.4525 83.885 29.365 83.785 28.85C83.7175 28.4975 82.3825 28.8925 80.015 27.955C78.625 27.405 78.195 27.1025 77.9125 26.9025C77.73 26.77 77.405 26.3875 77.105 26.7225ZM78.8975 24.07C79.38 24.07 79.38 23.32 78.8975 23.32C78.415 23.32 78.415 24.07 78.8975 24.07Z" fill="#B0B0AF"/>
<path d="M120.536 15.232V16.204C120.536 18.004 119.96 19.462 118.808 20.578C117.656 21.694 116.168 22.252 114.344 22.252C112.4 22.252 110.786 21.622 109.502 20.362C108.23 19.09 107.594 17.542 107.594 15.718C107.594 13.882 108.224 12.328 109.484 11.056C110.756 9.784 112.328 9.148 114.2 9.148C115.376 9.148 116.45 9.418 117.422 9.958C118.394 10.486 119.15 11.194 119.69 12.082L117.566 13.306C117.266 12.79 116.81 12.37 116.198 12.046C115.598 11.722 114.926 11.56 114.182 11.56C112.982 11.56 111.992 11.956 111.212 12.748C110.444 13.528 110.06 14.518 110.06 15.718C110.06 16.906 110.45 17.89 111.23 18.67C112.022 19.438 113.066 19.822 114.362 19.822C115.322 19.822 116.114 19.612 116.738 19.192C117.374 18.76 117.806 18.172 118.034 17.428H114.218V15.232H120.536ZM131.746 22L130.99 19.732H125.968L125.212 22H122.53L126.94 9.4H130.018L134.446 22H131.746ZM126.76 17.41H130.216L128.488 12.262L126.76 17.41ZM149.799 9.4V22H147.333V13.828L143.787 19.678H143.499L139.953 13.846V22H137.469V9.4H140.025L143.643 15.358L147.243 9.4H149.799ZM156.431 19.624H161.741V22H153.947V9.4H161.651V11.776H156.431V14.458H161.201V16.798H156.431V19.624ZM169.594 22.252C168.346 22.252 167.296 21.976 166.444 21.424C165.592 20.86 164.992 20.098 164.644 19.138L166.768 17.896C167.26 19.18 168.226 19.822 169.666 19.822C170.362 19.822 170.872 19.696 171.196 19.444C171.52 19.192 171.682 18.874 171.682 18.49C171.682 18.046 171.484 17.704 171.088 17.464C170.692 17.212 169.984 16.942 168.964 16.654C168.4 16.486 167.92 16.318 167.524 16.15C167.14 15.982 166.75 15.76 166.354 15.484C165.97 15.196 165.676 14.836 165.472 14.404C165.268 13.972 165.166 13.468 165.166 12.892C165.166 11.752 165.568 10.846 166.372 10.174C167.188 9.49 168.166 9.148 169.306 9.148C170.326 9.148 171.22 9.4 171.988 9.904C172.768 10.396 173.374 11.086 173.806 11.974L171.718 13.18C171.214 12.1 170.41 11.56 169.306 11.56C168.79 11.56 168.382 11.68 168.082 11.92C167.794 12.148 167.65 12.448 167.65 12.82C167.65 13.216 167.812 13.54 168.136 13.792C168.472 14.032 169.108 14.296 170.044 14.584C170.428 14.704 170.716 14.8 170.908 14.872C171.112 14.932 171.382 15.034 171.718 15.178C172.066 15.31 172.33 15.436 172.51 15.556C172.702 15.676 172.918 15.838 173.158 16.042C173.398 16.246 173.578 16.456 173.698 16.672C173.83 16.888 173.938 17.152 174.022 17.464C174.118 17.764 174.166 18.094 174.166 18.454C174.166 19.618 173.74 20.542 172.888 21.226C172.048 21.91 170.95 22.252 169.594 22.252Z" fill="white"/>
</svg>
